<svg xmlns="http://www.w3.org/2000/svg" viewBox="0 0 128 128" width="128" height="128"><defs><radialGradient id="sp" cx="0.5" cy="0.5" r="0.5"><stop offset="0" stop-color="#FFFFFF" stop-opacity="0.9"/><stop offset="1" stop-color="#FFFFFF" stop-opacity="0.00"/></radialGradient><radialGradient id="so" cx="0.5" cy="0.5" r="0.5"><stop offset="0" stop-color="#FFFFFF" stop-opacity="0.5"/><stop offset="1" stop-color="#FFFFFF" stop-opacity="0.00"/></radialGradient><linearGradient id="la" x1="0" y1="0" x2="0" y2="1"><stop offset="0" stop-color="#A7E08A"/><stop offset="0.5" stop-color="#5DB356"/><stop offset="1" stop-color="#2F8B41"/></linearGradient><linearGradient id="lb" x1="0" y1="0" x2="0" y2="1"><stop offset="0" stop-color="#3E9A48"/><stop offset="1" stop-color="#1F6B35"/></linearGradient><radialGradient id="hb" cx="0.36" cy="0.3" r="0.8"><stop offset="0" stop-color="#FFFFE0"/><stop offset="0.2" stop-color="#F2F2A8"/><stop offset="0.6" stop-color="#DCE284"/><stop offset="0.8" stop-color="#B0BC5A"/><stop offset="1" stop-color="#707A2A"/></radialGradient><radialGradient id="he" cx="0.5" cy="0.5" r="0.5"><stop offset="0" stop-color="#3E4A10" stop-opacity="0.00"/><stop offset="0.7" stop-color="#3E4A10" stop-opacity="0.00"/><stop offset="1" stop-color="#3E4A10" stop-opacity="0.5"/></radialGradient><linearGradient id="hhs" x1="0" y1="0" x2="0" y2="1"><stop offset="0" stop-color="#D8E08A"/><stop offset="1" stop-color="#8A9A3A"/></linearGradient><radialGradient id="hhf" cx="0.5" cy="0.5" r="0.5"><stop offset="0" stop-color="#F2FAD8"/><stop offset="0.6" stop-color="#D6EEA8"/><stop offset="1" stop-color="#B8E08A"/></radialGradient><radialGradient id="g1" cx="0.5" cy="0.5" r="0.5"><stop offset="0" stop-color="#0B2226" stop-opacity="0.3"/><stop offset="1" stop-color="#0B2226" stop-opacity="0.00"/></radialGradient><radialGradient id="g2" cx="0.5" cy="0.5" r="0.5"><stop offset="0" stop-color="#0B2226" stop-opacity="0.4"/><stop offset="1" stop-color="#0B2226" stop-opacity="0.00"/></radialGradient></defs><ellipse cx="64" cy="113" rx="36" ry="7" fill="url(#g1)"/><ellipse cx="64" cy="112.2" rx="22.3" ry="2.6" fill="url(#g2)"/><g transform="translate(3.6 -3.7)"><g transform="translate(64 112) scale(0.903) translate(-64 -112)"><g transform="translate(50 66) rotate(-8)"><ellipse rx="40" ry="34" fill="url(#hb)"/><ellipse rx="40" ry="34" fill="url(#he)"/><ellipse cx="-16" cy="-15.3" rx="13.6" ry="6.8" transform="rotate(-35 -16 -15.3)" fill="url(#so)" opacity="1"/><ellipse cx="-17.6" cy="-16.3" rx="4" ry="2" transform="rotate(-35 -17.6 -16.3)" fill="url(#sp)" opacity="1"/></g><g fill="#8A9A3A" fill-opacity="0.3"><ellipse cx="65.5" cy="82.8" rx="0.4" ry="0.5" transform="rotate(52.1 65.5 82.8)"/><ellipse cx="81.9" cy="60.7" rx="0.4" ry="0.5" transform="rotate(348.8 81.9 60.7)"/><ellipse cx="43.9" cy="55.1" rx="0.6" ry="0.6" transform="rotate(244.8 43.9 55.1)"/><ellipse cx="24.8" cy="75.4" rx="0.3" ry="0.3" transform="rotate(156.1 24.8 75.4)"/><ellipse cx="38.4" cy="92.1" rx="0.3" ry="0.3" transform="rotate(110.6 38.4 92.1)"/><ellipse cx="67.7" cy="74.9" rx="0.4" ry="0.4" transform="rotate(30.7 67.7 74.9)"/><ellipse cx="24.9" cy="67.2" rx="0.4" ry="0.4" transform="rotate(176.8 24.9 67.2)"/><ellipse cx="71.6" cy="66.2" rx="0.4" ry="0.4" transform="rotate(0.6 71.6 66.2)"/><ellipse cx="23.8" cy="60.5" rx="0.5" ry="0.5" transform="rotate(194 23.8 60.5)"/><ellipse cx="29.1" cy="72.8" rx="0.5" ry="0.5" transform="rotate(158.8 29.1 72.8)"/><ellipse cx="74.5" cy="52.3" rx="0.3" ry="0.3" transform="rotate(326.4 74.5 52.3)"/><ellipse cx="39.3" cy="94.4" rx="0.3" ry="0.6" transform="rotate(107.6 39.3 94.4)"/><ellipse cx="45" cy="79.4" rx="0.4" ry="0.3" transform="rotate(107.5 45 79.4)"/><ellipse cx="56.9" cy="71.7" rx="0.7" ry="0.6" transform="rotate(44.5 56.9 71.7)"/><ellipse cx="69.8" cy="60.2" rx="0.4" ry="0.3" transform="rotate(340.7 69.8 60.2)"/><ellipse cx="74.6" cy="53.9" rx="0.5" ry="0.6" transform="rotate(329.7 74.6 53.9)"/><ellipse cx="39.5" cy="92.8" rx="0.4" ry="0.5" transform="rotate(108.3 39.5 92.8)"/><ellipse cx="36.1" cy="44.1" rx="0.4" ry="0.5" transform="rotate(241.8 36.1 44.1)"/><ellipse cx="15.8" cy="73.3" rx="0.2" ry="0.3" transform="rotate(165.8 15.8 73.3)"/><ellipse cx="31.7" cy="76.2" rx="0.5" ry="0.4" transform="rotate(146.7 31.7 76.2)"/><ellipse cx="55.3" cy="59" rx="0.5" ry="0.4" transform="rotate(302.4 55.3 59)"/><ellipse cx="29.1" cy="72.2" rx="0.5" ry="0.5" transform="rotate(160.5 29.1 72.2)"/><ellipse cx="40.8" cy="43.2" rx="0.4" ry="0.5" transform="rotate(251.3 40.8 43.2)"/><ellipse cx="26" cy="88.5" rx="0.3" ry="0.5" transform="rotate(131.9 26 88.5)"/><ellipse cx="44.7" cy="58.5" rx="0.5" ry="0.4" transform="rotate(239.2 44.7 58.5)"/><ellipse cx="44.6" cy="53.6" rx="0.5" ry="0.4" transform="rotate(249.9 44.6 53.6)"/><ellipse cx="37.6" cy="70.6" rx="0.6" ry="0.6" transform="rotate(156.4 37.6 70.6)"/><ellipse cx="64.6" cy="55.6" rx="0.4" ry="0.3" transform="rotate(319.8 64.6 55.6)"/><ellipse cx="48.6" cy="91.7" rx="0.3" ry="0.4" transform="rotate(92.6 48.6 91.7)"/><ellipse cx="47.8" cy="37" rx="0.2" ry="0.3" transform="rotate(266.3 47.8 37)"/><ellipse cx="39.5" cy="42.2" rx="0.4" ry="0.5" transform="rotate(249.7 39.5 42.2)"/><ellipse cx="39" cy="52.5" rx="0.4" ry="0.3" transform="rotate(235.5 39 52.5)"/><ellipse cx="63.2" cy="59.2" rx="0.6" ry="0.6" transform="rotate(328.6 63.2 59.2)"/><ellipse cx="57.2" cy="48" rx="0.5" ry="0.4" transform="rotate(288.7 57.2 48)"/><ellipse cx="45.9" cy="80.2" rx="0.6" ry="0.5" transform="rotate(103.6 45.9 80.2)"/><ellipse cx="64.6" cy="72.4" rx="0.6" ry="0.6" transform="rotate(27.5 64.6 72.4)"/><ellipse cx="32.9" cy="84.3" rx="0.4" ry="0.5" transform="rotate(128.3 32.9 84.3)"/><ellipse cx="37.3" cy="40.3" rx="0.4" ry="0.5" transform="rotate(247.4 37.3 40.3)"/><ellipse cx="45.1" cy="83.3" rx="0.6" ry="0.6" transform="rotate(103.5 45.1 83.3)"/><ellipse cx="69.9" cy="55.2" rx="0.4" ry="0.4" transform="rotate(327.4 69.9 55.2)"/><ellipse cx="24.4" cy="83.2" rx="0.3" ry="0.4" transform="rotate(141.4 24.4 83.2)"/><ellipse cx="61.5" cy="68.5" rx="0.4" ry="0.4" transform="rotate(14.5 61.5 68.5)"/><ellipse cx="60.6" cy="58.3" rx="0.4" ry="0.3" transform="rotate(319 60.6 58.3)"/><ellipse cx="47.2" cy="37.5" rx="0.4" ry="0.6" transform="rotate(265.2 47.2 37.5)"/><ellipse cx="77.6" cy="48.3" rx="0.3" ry="0.5" transform="rotate(322.7 77.6 48.3)"/><ellipse cx="73.6" cy="59.7" rx="0.5" ry="0.6" transform="rotate(342.4 73.6 59.7)"/><ellipse cx="66.6" cy="72.1" rx="0.6" ry="0.6" transform="rotate(23.5 66.6 72.1)"/><ellipse cx="27" cy="75.6" rx="0.5" ry="0.5" transform="rotate(153.6 27 75.6)"/><ellipse cx="43.5" cy="70.4" rx="0.6" ry="0.6" transform="rotate(141.2 43.5 70.4)"/><ellipse cx="58.3" cy="93.9" rx="0.3" ry="0.5" transform="rotate(76 58.3 93.9)"/><ellipse cx="14.6" cy="60.9" rx="0.2" ry="0.4" transform="rotate(189.7 14.6 60.9)"/><ellipse cx="51.6" cy="51.9" rx="0.6" ry="0.5" transform="rotate(275.5 51.6 51.9)"/><ellipse cx="41.1" cy="93.2" rx="0.3" ry="0.4" transform="rotate(105.3 41.1 93.2)"/><ellipse cx="72.7" cy="43.3" rx="0.2" ry="0.4" transform="rotate(310.2 72.7 43.3)"/><ellipse cx="31.3" cy="91.7" rx="0.2" ry="0.4" transform="rotate(121.5 31.3 91.7)"/><ellipse cx="65.7" cy="73.3" rx="0.5" ry="0.4" transform="rotate(29.1 65.7 73.3)"/><ellipse cx="27" cy="79.4" rx="0.4" ry="0.5" transform="rotate(145.2 27 79.4)"/><ellipse cx="56.8" cy="71.2" rx="0.5" ry="0.4" transform="rotate(42.2 56.8 71.2)"/><ellipse cx="66.1" cy="62.4" rx="0.6" ry="0.5" transform="rotate(345.2 66.1 62.4)"/><ellipse cx="45.9" cy="48.2" rx="0.6" ry="0.6" transform="rotate(258.9 45.9 48.2)"/></g><g transform="translate(86 90) rotate(-6)"><path d="M-24 0 C-24 21.6 -13.2 25.6 0 25.6 C13.2 25.6 24 21.6 24 0 Z" fill="url(#hhs)"/><g transform="scale(1 0.7)"><circle r="24" fill="#C8D890"/><circle r="22.1" fill="url(#hhf)"/><ellipse rx="11" ry="10" fill="#E8D8A0"/><ellipse rx="10" ry="9" fill="#F4E6B8"/><g fill="#FFF8E0" stroke="#C8B478" stroke-width=".4"><ellipse cx="6" cy="0" rx="1.6" ry=".8" transform="rotate(0 6 0)"/><ellipse cx="5.2" cy="2.7" rx="1.6" ry=".8" transform="rotate(30 5.2 2.7)"/><ellipse cx="3" cy="4.8" rx="1.6" ry=".8" transform="rotate(60 3 4.8)"/><ellipse cx="0" cy="5.5" rx="1.6" ry=".8" transform="rotate(90 0 5.5)"/><ellipse cx="-3" cy="4.8" rx="1.6" ry=".8" transform="rotate(120 -3 4.8)"/><ellipse cx="-5.2" cy="2.7" rx="1.6" ry=".8" transform="rotate(150 -5.2 2.7)"/><ellipse cx="-6" cy="0" rx="1.6" ry=".8" transform="rotate(180 -6 0)"/><ellipse cx="-5.2" cy="-2.8" rx="1.6" ry=".8" transform="rotate(210 -5.2 -2.8)"/><ellipse cx="-3" cy="-4.8" rx="1.6" ry=".8" transform="rotate(240 -3 -4.8)"/><ellipse cx="-0" cy="-5.5" rx="1.6" ry=".8" transform="rotate(270 -0 -5.5)"/><ellipse cx="3" cy="-4.8" rx="1.6" ry=".8" transform="rotate(300 3 -4.8)"/><ellipse cx="5.2" cy="-2.8" rx="1.6" ry=".8" transform="rotate(330 5.2 -2.8)"/></g><ellipse cx="-10" cy="-12" rx="6" ry="2" transform="rotate(-30 -10 -12)" fill="url(#sp)" opacity=".6"/></g></g></g></g></svg>