<svg xmlns="http://www.w3.org/2000/svg" viewBox="0 0 128 128" width="128" height="128"><defs><radialGradient id="sp" cx="0.5" cy="0.5" r="0.5"><stop offset="0" stop-color="#FFFFFF" stop-opacity="0.9"/><stop offset="1" stop-color="#FFFFFF" stop-opacity="0.00"/></radialGradient><radialGradient id="so" cx="0.5" cy="0.5" r="0.5"><stop offset="0" stop-color="#FFFFFF" stop-opacity="0.5"/><stop offset="1" stop-color="#FFFFFF" stop-opacity="0.00"/></radialGradient><linearGradient id="la" x1="0" y1="0" x2="0" y2="1"><stop offset="0" stop-color="#A7E08A"/><stop offset="0.5" stop-color="#5DB356"/><stop offset="1" stop-color="#2F8B41"/></linearGradient><linearGradient id="lb" x1="0" y1="0" x2="0" y2="1"><stop offset="0" stop-color="#3E9A48"/><stop offset="1" stop-color="#1F6B35"/></linearGradient><radialGradient id="ph" cx="0.36" cy="0.32" r="0.78"><stop offset="0" stop-color="#FFE8A0"/><stop offset="0.2" stop-color="#FFC040"/><stop offset="0.6" stop-color="#F59A10"/><stop offset="0.8" stop-color="#C87008"/><stop offset="1" stop-color="#7A3E02"/></radialGradient><linearGradient id="hu" x1="0" y1="0" x2="0" y2="1"><stop offset="0" stop-color="#F6E6C0"/><stop offset="0.5" stop-color="#E0C890"/><stop offset="1" stop-color="#B8986A"/></linearGradient><linearGradient id="hv" x1="0" y1="0" x2="0" y2="1"><stop offset="0" stop-color="#D8BE8A"/><stop offset="1" stop-color="#9A7A4E"/></linearGradient><radialGradient id="g1" cx="0.5" cy="0.5" r="0.5"><stop offset="0" stop-color="#0B2226" stop-opacity="0.3"/><stop offset="1" stop-color="#0B2226" stop-opacity="0.00"/></radialGradient><radialGradient id="g2" cx="0.5" cy="0.5" r="0.5"><stop offset="0" stop-color="#0B2226" stop-opacity="0.4"/><stop offset="1" stop-color="#0B2226" stop-opacity="0.00"/></radialGradient></defs><ellipse cx="64" cy="113" rx="41.6" ry="7" fill="url(#g1)"/><ellipse cx="64" cy="112.2" rx="25.8" ry="2.6" fill="url(#g2)"/><g transform="translate(-4.2 -24.5)"><g transform="translate(64 112) scale(1.387) translate(-64 -112)"><g transform="translate(64 86) rotate(30)"><path d="M0 0 C8 -14 26 -18 44 -6 C30 4 12 8 0 0 Z" fill="url(#hv)"/><g stroke="#8A6A3E" stroke-opacity=".45" stroke-width=".6" fill="none"><path d="M2 0 Q20 -7 42 -6"/><path d="M8 -3 Q16 -10 24 -12"/><path d="M14 -1 Q24 -4 32 -3"/><path d="M8 2 Q18 3 28 1"/></g></g><g transform="translate(64 86) rotate(150)"><path d="M0 0 C8 -14 26 -18 44 -6 C30 4 12 8 0 0 Z" fill="url(#hv)"/><g stroke="#8A6A3E" stroke-opacity=".45" stroke-width=".6" fill="none"><path d="M2 0 Q20 -7 42 -6"/><path d="M8 -3 Q16 -10 24 -12"/><path d="M14 -1 Q24 -4 32 -3"/><path d="M8 2 Q18 3 28 1"/></g></g><g transform="translate(64 86) rotate(60)"><path d="M0 0 C8 -14 26 -18 44 -6 C30 4 12 8 0 0 Z" fill="url(#hu)"/><g stroke="#8A6A3E" stroke-opacity=".45" stroke-width=".6" fill="none"><path d="M2 0 Q20 -7 42 -6"/><path d="M8 -3 Q16 -10 24 -12"/><path d="M14 -1 Q24 -4 32 -3"/><path d="M8 2 Q18 3 28 1"/></g></g><g transform="translate(64 86) rotate(120)"><path d="M0 0 C8 -14 26 -18 44 -6 C30 4 12 8 0 0 Z" fill="url(#hu)"/><g stroke="#8A6A3E" stroke-opacity=".45" stroke-width=".6" fill="none"><path d="M2 0 Q20 -7 42 -6"/><path d="M8 -3 Q16 -10 24 -12"/><path d="M14 -1 Q24 -4 32 -3"/><path d="M8 2 Q18 3 28 1"/></g></g><g transform="translate(64 86) rotate(90)"><path d="M0 0 C8 -14 26 -18 44 -6 C30 4 12 8 0 0 Z" fill="url(#hu)"/><g stroke="#8A6A3E" stroke-opacity=".45" stroke-width=".6" fill="none"><path d="M2 0 Q20 -7 42 -6"/><path d="M8 -3 Q16 -10 24 -12"/><path d="M14 -1 Q24 -4 32 -3"/><path d="M8 2 Q18 3 28 1"/></g></g><ellipse cx="64" cy="90" rx="20" ry="19" fill="url(#ph)"/><ellipse cx="56.8" cy="82.4" rx="7.2" ry="4.2" transform="rotate(-35 56.8 82.4)" fill="url(#so)" opacity=".8"/><ellipse cx="55.6" cy="81.3" rx="2.8" ry="1.5" transform="rotate(-35 55.6 81.3)" fill="url(#sp)" opacity="1"/><ellipse cx="64" cy="71.5" rx="3" ry="1.5" fill="#8A5A1E" fill-opacity=".6"/></g></g></svg>