<svg xmlns="http://www.w3.org/2000/svg" viewBox="0 0 128 128" width="128" height="128"><defs><radialGradient id="sp" cx="0.5" cy="0.5" r="0.5"><stop offset="0" stop-color="#FFFFFF" stop-opacity="0.9"/><stop offset="1" stop-color="#FFFFFF" stop-opacity="0.00"/></radialGradient><radialGradient id="so" cx="0.5" cy="0.5" r="0.5"><stop offset="0" stop-color="#FFFFFF" stop-opacity="0.5"/><stop offset="1" stop-color="#FFFFFF" stop-opacity="0.00"/></radialGradient><linearGradient id="la" x1="0" y1="0" x2="0" y2="1"><stop offset="0" stop-color="#A7E08A"/><stop offset="0.5" stop-color="#5DB356"/><stop offset="1" stop-color="#2F8B41"/></linearGradient><linearGradient id="lb" x1="0" y1="0" x2="0" y2="1"><stop offset="0" stop-color="#3E9A48"/><stop offset="1" stop-color="#1F6B35"/></linearGradient><radialGradient id="pb" cx="0.36" cy="0.42" r="0.75"><stop offset="0" stop-color="#F6F7B0"/><stop offset="0.2" stop-color="#DDE26A"/><stop offset="0.6" stop-color="#B9C63E"/><stop offset="0.8" stop-color="#879A22"/><stop offset="1" stop-color="#566414"/></radialGradient><radialGradient id="pe" cx="0.5" cy="0.5" r="0.5"><stop offset="0" stop-color="#3E4A0A" stop-opacity="0.00"/><stop offset="0.7" stop-color="#3E4A0A" stop-opacity="0.00"/><stop offset="1" stop-color="#3E4A0A" stop-opacity="0.5"/></radialGradient><radialGradient id="pr" cx="0.5" cy="0.5" r="0.5"><stop offset="0" stop-color="#E0A04A" stop-opacity="0.6"/><stop offset="1" stop-color="#E0A04A" stop-opacity="0.00"/></radialGradient><radialGradient id="pk" cx="0.5" cy="0.5" r="0.5"><stop offset="0" stop-color="#F0E88A" stop-opacity="0.5"/><stop offset="1" stop-color="#F0E88A" stop-opacity="0.00"/></radialGradient><clipPath id="pc"><path d="M64 30 C57 30 55 40 53 50 C50 62 35 70 35 88 C35 104 48 112 64 112 C80 112 93 104 93 88 C93 70 78 62 75 50 C73 40 71 30 64 30 Z"/></clipPath><linearGradient id="st" x1="0" y1="0" x2="1" y2="0"><stop offset="0" stop-color="#9A7248"/><stop offset="1" stop-color="#4A301A"/></linearGradient><radialGradient id="g1" cx="0.5" cy="0.5" r="0.5"><stop offset="0" stop-color="#0B2226" stop-opacity="0.3"/><stop offset="1" stop-color="#0B2226" stop-opacity="0.00"/></radialGradient><radialGradient id="g2" cx="0.5" cy="0.5" r="0.5"><stop offset="0" stop-color="#0B2226" stop-opacity="0.4"/><stop offset="1" stop-color="#0B2226" stop-opacity="0.00"/></radialGradient></defs><ellipse cx="64" cy="113" rx="24" ry="7" fill="url(#g1)"/><ellipse cx="64" cy="112.2" rx="14.9" ry="2.6" fill="url(#g2)"/><g transform="translate(-0 -0)"><g transform="translate(64 112) scale(1.039) translate(-64 -112)"><path d="M64 30 C57 30 55 40 53 50 C50 62 35 70 35 88 C35 104 48 112 64 112 C80 112 93 104 93 88 C93 70 78 62 75 50 C73 40 71 30 64 30 Z" fill="url(#pb)"/><g clip-path="url(#pc)"><ellipse cx="78" cy="78" rx="18" ry="22" fill="url(#pr)"/><g fill="#7A5A1E" fill-opacity="0.45"><ellipse cx="73.5" cy="82.8" rx="0.5" ry="0.4" transform="rotate(4.4 73.5 82.8)"/><ellipse cx="59.7" cy="71.6" rx="0.4" ry="0.3" transform="rotate(246.2 59.7 71.6)"/><ellipse cx="66.8" cy="108.3" rx="0.3" ry="0.3" transform="rotate(83.4 66.8 108.3)"/><ellipse cx="62.6" cy="57.3" rx="0.3" ry="0.3" transform="rotate(266.6 62.6 57.3)"/><ellipse cx="45.4" cy="77.5" rx="0.4" ry="0.4" transform="rotate(192.8 45.4 77.5)"/><ellipse cx="72.7" cy="81.8" rx="0.4" ry="0.3" transform="rotate(358.7 72.7 81.8)"/><ellipse cx="80.8" cy="74.9" rx="0.4" ry="0.4" transform="rotate(338.3 80.8 74.9)"/><ellipse cx="55.7" cy="98.1" rx="0.6" ry="0.6" transform="rotate(118.9 55.7 98.1)"/><ellipse cx="67.3" cy="95.7" rx="0.5" ry="0.5" transform="rotate(75.7 67.3 95.7)"/><ellipse cx="37.4" cy="73.3" rx="0.3" ry="0.6" transform="rotate(197.1 37.4 73.3)"/><ellipse cx="56.1" cy="92.8" rx="0.6" ry="0.6" transform="rotate(128 56.1 92.8)"/><ellipse cx="69" cy="81.6" rx="0.6" ry="0.5" transform="rotate(356 69 81.6)"/><ellipse cx="79.6" cy="63.9" rx="0.3" ry="0.4" transform="rotate(312.6 79.6 63.9)"/><ellipse cx="71" cy="57.1" rx="0.3" ry="0.4" transform="rotate(286.8 71 57.1)"/><ellipse cx="55.6" cy="71" rx="0.4" ry="0.3" transform="rotate(230.7 55.6 71)"/><ellipse cx="55.5" cy="97.1" rx="0.4" ry="0.4" transform="rotate(121 55.5 97.1)"/><ellipse cx="48.3" cy="59.8" rx="0.4" ry="0.6" transform="rotate(232.8 48.3 59.8)"/><ellipse cx="92.1" cy="77.5" rx="0.3" ry="0.5" transform="rotate(351.5 92.1 77.5)"/><ellipse cx="59.9" cy="94" rx="0.5" ry="0.5" transform="rotate(110.3 59.9 94)"/><ellipse cx="41.6" cy="74.9" rx="0.3" ry="0.3" transform="rotate(196.5 41.6 74.9)"/><ellipse cx="73.6" cy="109.3" rx="0.3" ry="0.5" transform="rotate(69.4 73.6 109.3)"/><ellipse cx="61" cy="73.1" rx="0.5" ry="0.4" transform="rotate(250.3 61 73.1)"/><ellipse cx="83.4" cy="68.9" rx="0.5" ry="0.6" transform="rotate(327.6 83.4 68.9)"/><ellipse cx="70.3" cy="101.4" rx="0.5" ry="0.5" transform="rotate(70.9 70.3 101.4)"/><ellipse cx="40.2" cy="91.2" rx="0.4" ry="0.5" transform="rotate(160.1 40.2 91.2)"/><ellipse cx="70.6" cy="88.5" rx="0.7" ry="0.6" transform="rotate(42.5 70.6 88.5)"/><ellipse cx="73.2" cy="91.1" rx="0.5" ry="0.4" transform="rotate(43 73.2 91.1)"/><ellipse cx="58" cy="54.6" rx="0.3" ry="0.4" transform="rotate(256.8 58 54.6)"/><ellipse cx="38.7" cy="82.3" rx="0.3" ry="0.4" transform="rotate(179.3 38.7 82.3)"/><ellipse cx="48.5" cy="99.1" rx="0.4" ry="0.5" transform="rotate(134.1 48.5 99.1)"/><ellipse cx="73.3" cy="84.4" rx="0.4" ry="0.3" transform="rotate(13.7 73.3 84.4)"/><ellipse cx="60.3" cy="57" rx="0.5" ry="0.6" transform="rotate(261 60.3 57)"/><ellipse cx="65.6" cy="66.7" rx="0.6" ry="0.5" transform="rotate(276.3 65.6 66.7)"/><ellipse cx="80.8" cy="80.3" rx="0.4" ry="0.3" transform="rotate(354.6 80.8 80.3)"/><ellipse cx="53.3" cy="93.4" rx="0.4" ry="0.4" transform="rotate(135.1 53.3 93.4)"/><ellipse cx="73.7" cy="85" rx="0.6" ry="0.6" transform="rotate(16.2 73.7 85)"/><ellipse cx="85.2" cy="89.4" rx="0.3" ry="0.4" transform="rotate(18 85.2 89.4)"/><ellipse cx="73" cy="107.8" rx="0.3" ry="0.4" transform="rotate(69.6 73 107.8)"/><ellipse cx="71.8" cy="100.8" rx="0.5" ry="0.5" transform="rotate(66.2 71.8 100.8)"/><ellipse cx="37.9" cy="77.7" rx="0.3" ry="0.4" transform="rotate(188.8 37.9 77.7)"/><ellipse cx="40.1" cy="78.1" rx="0.4" ry="0.4" transform="rotate(188.7 40.1 78.1)"/><ellipse cx="60" cy="61.7" rx="0.4" ry="0.3" transform="rotate(258.1 60 61.7)"/><ellipse cx="82" cy="100.8" rx="0.4" ry="0.5" transform="rotate(44.5 82 100.8)"/><ellipse cx="86.2" cy="73.1" rx="0.4" ry="0.5" transform="rotate(339.4 86.2 73.1)"/><ellipse cx="77.2" cy="106.3" rx="0.3" ry="0.3" transform="rotate(59.8 77.2 106.3)"/><ellipse cx="54.5" cy="87.2" rx="0.5" ry="0.4" transform="rotate(153 54.5 87.2)"/><ellipse cx="57.5" cy="100.6" rx="0.5" ry="0.5" transform="rotate(110.6 57.5 100.6)"/><ellipse cx="50.4" cy="78.1" rx="0.6" ry="0.5" transform="rotate(195 50.4 78.1)"/><ellipse cx="61.6" cy="54.5" rx="0.3" ry="0.3" transform="rotate(264.6 61.6 54.5)"/><ellipse cx="43.7" cy="63" rx="0.3" ry="0.4" transform="rotate(221.3 43.7 63)"/><ellipse cx="71.6" cy="108.2" rx="0.3" ry="0.4" transform="rotate(72.8 71.6 108.2)"/><ellipse cx="43" cy="98" rx="0.3" ry="0.4" transform="rotate(144.5 43 98)"/><ellipse cx="68.2" cy="95.3" rx="0.5" ry="0.4" transform="rotate(71.4 68.2 95.3)"/><ellipse cx="58.4" cy="64.5" rx="0.5" ry="0.5" transform="rotate(251.2 58.4 64.5)"/><ellipse cx="77" cy="88.1" rx="0.5" ry="0.5" transform="rotate(23.7 77 88.1)"/><ellipse cx="44" cy="84.8" rx="0.5" ry="0.6" transform="rotate(172.6 44 84.8)"/><ellipse cx="61.9" cy="94.8" rx="0.4" ry="0.3" transform="rotate(99.8 61.9 94.8)"/><ellipse cx="48.6" cy="83.8" rx="0.5" ry="0.4" transform="rotate(173.7 48.6 83.8)"/><ellipse cx="64.4" cy="82" rx="0.5" ry="0.4" transform="rotate(2 64.4 82)"/><ellipse cx="64.7" cy="65.4" rx="0.6" ry="0.6" transform="rotate(272.7 64.7 65.4)"/><ellipse cx="48.1" cy="72.8" rx="0.5" ry="0.5" transform="rotate(208.6 48.1 72.8)"/><ellipse cx="66.3" cy="105.5" rx="0.5" ry="0.6" transform="rotate(84 66.3 105.5)"/><ellipse cx="48.4" cy="77.6" rx="0.4" ry="0.3" transform="rotate(194.7 48.4 77.6)"/><ellipse cx="53" cy="76.1" rx="0.5" ry="0.4" transform="rotate(206.7 53 76.1)"/><ellipse cx="37.3" cy="74.2" rx="0.3" ry="0.5" transform="rotate(195.3 37.3 74.2)"/><ellipse cx="37.8" cy="78.6" rx="0.3" ry="0.4" transform="rotate(187 37.8 78.6)"/><ellipse cx="46.2" cy="98.2" rx="0.4" ry="0.5" transform="rotate(139.6 46.2 98.2)"/><ellipse cx="67.2" cy="101.2" rx="0.5" ry="0.5" transform="rotate(79.8 67.2 101.2)"/><ellipse cx="65.2" cy="107.5" rx="0.3" ry="0.3" transform="rotate(87.2 65.2 107.5)"/><ellipse cx="86.6" cy="74.9" rx="0.3" ry="0.4" transform="rotate(343.7 86.6 74.9)"/><ellipse cx="89.3" cy="79.1" rx="0.3" ry="0.3" transform="rotate(354 89.3 79.1)"/><ellipse cx="64.2" cy="103.3" rx="0.5" ry="0.6" transform="rotate(89.4 64.2 103.3)"/><ellipse cx="67.9" cy="87.1" rx="0.5" ry="0.4" transform="rotate(50.6 67.9 87.1)"/><ellipse cx="81.5" cy="87.4" rx="0.5" ry="0.5" transform="rotate(16.1 81.5 87.4)"/><ellipse cx="54" cy="86.2" rx="0.4" ry="0.3" transform="rotate(158.6 54 86.2)"/><ellipse cx="70.2" cy="62.9" rx="0.4" ry="0.4" transform="rotate(289 70.2 62.9)"/><ellipse cx="40.6" cy="85.5" rx="0.5" ry="0.6" transform="rotate(172.1 40.6 85.5)"/><ellipse cx="75.3" cy="59.1" rx="0.3" ry="0.4" transform="rotate(297.8 75.3 59.1)"/><ellipse cx="68.2" cy="89.9" rx="0.6" ry="0.6" transform="rotate(60.8 68.2 89.9)"/><ellipse cx="84.1" cy="90" rx="0.5" ry="0.6" transform="rotate(20.5 84.1 90)"/><ellipse cx="56.2" cy="99" rx="0.4" ry="0.4" transform="rotate(116 56.2 99)"/><ellipse cx="86.2" cy="73.4" rx="0.4" ry="0.6" transform="rotate(340 86.2 73.4)"/><ellipse cx="87.6" cy="88.3" rx="0.4" ry="0.4" transform="rotate(14 87.6 88.3)"/><ellipse cx="43" cy="97.9" rx="0.4" ry="0.5" transform="rotate(144.5 43 97.9)"/><ellipse cx="84.7" cy="68.1" rx="0.4" ry="0.6" transform="rotate(327.8 84.7 68.1)"/><ellipse cx="44.9" cy="91.9" rx="0.5" ry="0.5" transform="rotate(154.1 44.9 91.9)"/><ellipse cx="53.9" cy="85.2" rx="0.5" ry="0.5" transform="rotate(163.3 53.9 85.2)"/><ellipse cx="82.4" cy="61.5" rx="0.3" ry="0.3" transform="rotate(313.6 82.4 61.5)"/><ellipse cx="54" cy="91.9" rx="0.5" ry="0.4" transform="rotate(137.2 54 91.9)"/><ellipse cx="81.9" cy="77" rx="0.4" ry="0.4" transform="rotate(345.4 81.9 77)"/><ellipse cx="61.3" cy="102" rx="0.5" ry="0.5" transform="rotate(98.1 61.3 102)"/><ellipse cx="57.2" cy="93" rx="0.4" ry="0.4" transform="rotate(123.3 57.2 93)"/><ellipse cx="62.3" cy="110.9" rx="0.2" ry="0.4" transform="rotate(93.6 62.3 110.9)"/><ellipse cx="64.2" cy="72" rx="0.6" ry="0.5" transform="rotate(271.4 64.2 72)"/><ellipse cx="61.5" cy="108.7" rx="0.3" ry="0.4" transform="rotate(95.8 61.5 108.7)"/><ellipse cx="71.7" cy="86.4" rx="0.6" ry="0.5" transform="rotate(28.2 71.7 86.4)"/><ellipse cx="44.8" cy="76.5" rx="0.4" ry="0.4" transform="rotate(195.1 44.8 76.5)"/><ellipse cx="56.9" cy="62.3" rx="0.3" ry="0.3" transform="rotate(248.9 56.9 62.3)"/><ellipse cx="51.1" cy="71.9" rx="0.6" ry="0.6" transform="rotate(216.3 51.1 71.9)"/><ellipse cx="40.1" cy="73.9" rx="0.3" ry="0.3" transform="rotate(197.6 40.1 73.9)"/><ellipse cx="58.1" cy="59.1" rx="0.5" ry="0.6" transform="rotate(254.5 58.1 59.1)"/><ellipse cx="79.8" cy="67" rx="0.4" ry="0.5" transform="rotate(318.3 79.8 67)"/><ellipse cx="65.6" cy="66.5" rx="0.5" ry="0.5" transform="rotate(276.1 65.6 66.5)"/><ellipse cx="69" cy="59.2" rx="0.4" ry="0.5" transform="rotate(283.3 69 59.2)"/><ellipse cx="81.4" cy="58.4" rx="0.2" ry="0.4" transform="rotate(308.1 81.4 58.4)"/><ellipse cx="83.9" cy="92.8" rx="0.3" ry="0.3" transform="rotate(26.9 83.9 92.8)"/><ellipse cx="83.3" cy="78" rx="0.4" ry="0.5" transform="rotate(349.1 83.3 78)"/><ellipse cx="74.9" cy="56.2" rx="0.3" ry="0.3" transform="rotate(294.3 74.9 56.2)"/><ellipse cx="52.4" cy="85.7" rx="0.5" ry="0.4" transform="rotate(163.2 52.4 85.7)"/><ellipse cx="81.9" cy="103.1" rx="0.3" ry="0.4" transform="rotate(48 81.9 103.1)"/><ellipse cx="43.3" cy="100.5" rx="0.3" ry="0.5" transform="rotate(140.1 43.3 100.5)"/><ellipse cx="53.6" cy="100.4" rx="0.5" ry="0.5" transform="rotate(121 53.6 100.4)"/><ellipse cx="68" cy="92.4" rx="0.6" ry="0.6" transform="rotate(67.6 68 92.4)"/><ellipse cx="76.6" cy="103.8" rx="0.4" ry="0.5" transform="rotate(58.4 76.6 103.8)"/><ellipse cx="49.9" cy="72.3" rx="0.6" ry="0.6" transform="rotate(213 49.9 72.3)"/><ellipse cx="65.7" cy="74.1" rx="0.7" ry="0.6" transform="rotate(283.1 65.7 74.1)"/><ellipse cx="54" cy="69.6" rx="0.4" ry="0.4" transform="rotate(229.2 54 69.6)"/><ellipse cx="85" cy="97.8" rx="0.4" ry="0.6" transform="rotate(35.3 85 97.8)"/><ellipse cx="57" cy="92.5" rx="0.4" ry="0.3" transform="rotate(125.2 57 92.5)"/><ellipse cx="50.7" cy="90.5" rx="0.4" ry="0.3" transform="rotate(149 50.7 90.5)"/></g><g fill="#FFFFE0" fill-opacity="0.5"><ellipse cx="56.4" cy="108.3" rx="0.3" ry="0.3" transform="rotate(107.2 56.4 108.3)"/><ellipse cx="47.2" cy="94.4" rx="0.3" ry="0.3" transform="rotate(145.4 47.2 94.4)"/><ellipse cx="71.6" cy="83.9" rx="0.4" ry="0.3" transform="rotate(13.1 71.6 83.9)"/><ellipse cx="90.1" cy="77.5" rx="0.3" ry="0.4" transform="rotate(350.8 90.1 77.5)"/><ellipse cx="77.1" cy="71.8" rx="0.4" ry="0.3" transform="rotate(323.8 77.1 71.8)"/><ellipse cx="79.2" cy="64.7" rx="0.4" ry="0.5" transform="rotate(313.2 79.2 64.7)"/><ellipse cx="52.4" cy="97.1" rx="0.5" ry="0.4" transform="rotate(129.2 52.4 97.1)"/><ellipse cx="72.6" cy="73.7" rx="0.4" ry="0.4" transform="rotate(317.7 72.6 73.7)"/><ellipse cx="85.2" cy="84" rx="0.4" ry="0.5" transform="rotate(4.9 85.2 84)"/><ellipse cx="54" cy="77.2" rx="0.5" ry="0.4" transform="rotate(204.4 54 77.2)"/><ellipse cx="58.6" cy="74" rx="0.6" ry="0.5" transform="rotate(234 58.6 74)"/><ellipse cx="53.3" cy="64" rx="0.4" ry="0.4" transform="rotate(237.6 53.3 64)"/><ellipse cx="74.4" cy="99.6" rx="0.4" ry="0.4" transform="rotate(57.8 74.4 99.6)"/><ellipse cx="66.4" cy="106.3" rx="0.4" ry="0.4" transform="rotate(83.9 66.4 106.3)"/><ellipse cx="90.9" cy="73.5" rx="0.2" ry="0.4" transform="rotate(343.6 90.9 73.5)"/><ellipse cx="60.3" cy="63.8" rx="0.4" ry="0.4" transform="rotate(257.8 60.3 63.8)"/><ellipse cx="38.2" cy="69.7" rx="0.2" ry="0.3" transform="rotate(204.1 38.2 69.7)"/><ellipse cx="47.9" cy="86.1" rx="0.5" ry="0.5" transform="rotate(166.7 47.9 86.1)"/><ellipse cx="82.6" cy="75.6" rx="0.3" ry="0.3" transform="rotate(342.2 82.6 75.6)"/><ellipse cx="45.9" cy="69" rx="0.4" ry="0.4" transform="rotate(214 45.9 69)"/><ellipse cx="67.2" cy="61.6" rx="0.4" ry="0.4" transform="rotate(279.6 67.2 61.6)"/><ellipse cx="64.5" cy="77" rx="0.4" ry="0.3" transform="rotate(276.2 64.5 77)"/><ellipse cx="53.2" cy="54.2" rx="0.3" ry="0.5" transform="rotate(247.6 53.2 54.2)"/><ellipse cx="58.4" cy="111.4" rx="0.2" ry="0.4" transform="rotate(101.4 58.4 111.4)"/><ellipse cx="53.1" cy="85.5" rx="0.5" ry="0.4" transform="rotate(163 53.1 85.5)"/><ellipse cx="45.7" cy="97.8" rx="0.4" ry="0.5" transform="rotate(141 45.7 97.8)"/><ellipse cx="80.1" cy="99.7" rx="0.4" ry="0.4" transform="rotate(46 80.1 99.7)"/><ellipse cx="63.2" cy="87.6" rx="0.6" ry="0.5" transform="rotate(98.7 63.2 87.6)"/><ellipse cx="56.4" cy="59.4" rx="0.3" ry="0.3" transform="rotate(250.3 56.4 59.4)"/><ellipse cx="78.6" cy="70.7" rx="0.4" ry="0.4" transform="rotate(324 78.6 70.7)"/><ellipse cx="46.1" cy="75" rx="0.5" ry="0.5" transform="rotate(200.3 46.1 75)"/><ellipse cx="41" cy="87.1" rx="0.4" ry="0.5" transform="rotate(168.3 41 87.1)"/><ellipse cx="74.7" cy="76.9" rx="0.4" ry="0.4" transform="rotate(335.8 74.7 76.9)"/><ellipse cx="85.1" cy="74.7" rx="0.4" ry="0.4" transform="rotate(342 85.1 74.7)"/><ellipse cx="71.2" cy="74.9" rx="0.4" ry="0.4" transform="rotate(317.3 71.2 74.9)"/><ellipse cx="85.2" cy="92.5" rx="0.3" ry="0.4" transform="rotate(24.9 85.2 92.5)"/><ellipse cx="57.7" cy="101" rx="0.4" ry="0.4" transform="rotate(109.6 57.7 101)"/><ellipse cx="57.7" cy="56.4" rx="0.3" ry="0.4" transform="rotate(255.3 57.7 56.4)"/><ellipse cx="68.1" cy="77.3" rx="0.5" ry="0.4" transform="rotate(312.7 68.1 77.3)"/><ellipse cx="69.6" cy="90.6" rx="0.5" ry="0.4" transform="rotate(55.2 69.6 90.6)"/></g><path d="M64 30 C57 30 55 40 53 50 C50 62 35 70 35 88 C35 104 48 112 64 112 C80 112 93 104 93 88 C93 70 78 62 75 50 C73 40 71 30 64 30 Z" fill="url(#pe)"/><ellipse cx="82" cy="100" rx="14" ry="9" fill="url(#pk)"/></g><ellipse cx="48" cy="80" rx="7" ry="15" transform="rotate(-12 48 80)" fill="url(#so)"/><ellipse cx="46" cy="76" rx="1.8" ry="4.5" transform="rotate(-12 46 76)" fill="url(#sp)"/><ellipse cx="61" cy="45" rx="2.5" ry="5" transform="rotate(-10 61 45)" fill="url(#so)" opacity=".7"/><path d="M64 32 C63 25 65 19 69 14" stroke="url(#st)" stroke-width="3.2" fill="none" stroke-linecap="round"/><ellipse cx="69" cy="14.5" rx="1.8" ry="1.2" fill="#5A4028"/><g transform="translate(66 22) rotate(-24)"><path d="M0 0 C5.7 8.5 18.7 7.6 26 0 Q13 -0.5 0 0 Z" fill="url(#lb)"/><path d="M0 0 C5.7 -9 18.7 -8.3 26 0 Q13 -0.5 0 0 Z" fill="url(#la)"/><g stroke="#1E5E2E" stroke-opacity=".28" stroke-width=".55" fill="none" stroke-linecap="round"><path d="M4 -0.5 Q5.8 -4 8.2 -6"/><path d="M4 -0.3 Q5.8 3.6 8.2 5.5"/><path d="M8 -0.5 Q9.8 -4 12.2 -5.5"/><path d="M8 -0.3 Q9.8 3.6 12.2 5"/><path d="M12 -0.5 Q13.8 -4 16.2 -5"/><path d="M12 -0.3 Q13.8 3.6 16.2 4.6"/><path d="M16 -0.5 Q17.8 -4 20.2 -4.5"/><path d="M16 -0.3 Q17.8 3.6 20.2 4.1"/><path d="M20 -0.5 Q21.8 -4 24.2 -4"/><path d="M20 -0.3 Q21.8 3.6 24.2 3.7"/></g><path d="M-3 .6 Q13 -0.7 24.2 0" stroke="#D6F2B8" stroke-opacity=".75" stroke-width=".9" fill="none" stroke-linecap="round"/><ellipse cx="10.9" cy="-4" rx="6.8" ry="2" fill="url(#so)" opacity=".55"/></g></g></g></svg>