<svg xmlns="http://www.w3.org/2000/svg" viewBox="0 0 128 128" width="128" height="128"><defs><radialGradient id="sp" cx="0.5" cy="0.5" r="0.5"><stop offset="0" stop-color="#FFFFFF" stop-opacity="0.9"/><stop offset="1" stop-color="#FFFFFF" stop-opacity="0.00"/></radialGradient><radialGradient id="so" cx="0.5" cy="0.5" r="0.5"><stop offset="0" stop-color="#FFFFFF" stop-opacity="0.5"/><stop offset="1" stop-color="#FFFFFF" stop-opacity="0.00"/></radialGradient><linearGradient id="la" x1="0" y1="0" x2="0" y2="1"><stop offset="0" stop-color="#A7E08A"/><stop offset="0.5" stop-color="#5DB356"/><stop offset="1" stop-color="#2F8B41"/></linearGradient><linearGradient id="lb" x1="0" y1="0" x2="0" y2="1"><stop offset="0" stop-color="#3E9A48"/><stop offset="1" stop-color="#1F6B35"/></linearGradient><radialGradient id="lw" cx="0.34" cy="0.27" r="0.8"><stop offset="0" stop-color="#FFFBC8"/><stop offset="0.2" stop-color="#FFF06A"/><stop offset="0.6" stop-color="#F7D92E"/><stop offset="0.8" stop-color="#DDB514"/><stop offset="1" stop-color="#9E7A06"/></radialGradient><radialGradient id="lwe" cx="0.5" cy="0.5" r="0.5"><stop offset="0" stop-color="#9E7A06" stop-opacity="0.00"/><stop offset="0.7" stop-color="#9E7A06" stop-opacity="0.00"/><stop offset="1" stop-color="#9E7A06" stop-opacity="0.5"/></radialGradient><radialGradient id="lwk" cx="0.5" cy="0.5" r="0.5"><stop offset="0" stop-color="#FFF06A" stop-opacity="0.5"/><stop offset="1" stop-color="#FFF06A" stop-opacity="0.00"/></radialGradient><clipPath id="lwc"><ellipse cx="52" cy="70" rx="38" ry="29" transform="rotate(-18 52 70)"/></clipPath><linearGradient id="lhr" x1="0" y1="0" x2="0" y2="1"><stop offset="0" stop-color="#F3D22A"/><stop offset="1" stop-color="#B8940A"/></linearGradient><radialGradient id="lhp" cx="0.5" cy="0.5" r="0.5"><stop offset="0" stop-color="#FFFCE6"/><stop offset="1" stop-color="#FFF3B8"/></radialGradient><radialGradient id="lhf" cx="0.5" cy="0.5" r="0.5"><stop offset="0" stop-color="#FFF7B0"/><stop offset="0.6" stop-color="#F9E77A"/><stop offset="1" stop-color="#F0D24A"/></radialGradient><radialGradient id="g1" cx="0.5" cy="0.5" r="0.5"><stop offset="0" stop-color="#0B2226" stop-opacity="0.3"/><stop offset="1" stop-color="#0B2226" stop-opacity="0.00"/></radialGradient><radialGradient id="g2" cx="0.5" cy="0.5" r="0.5"><stop offset="0" stop-color="#0B2226" stop-opacity="0.4"/><stop offset="1" stop-color="#0B2226" stop-opacity="0.00"/></radialGradient></defs><ellipse cx="64" cy="113" rx="38" ry="7" fill="url(#g1)"/><ellipse cx="64" cy="112.2" rx="23.6" ry="2.6" fill="url(#g2)"/><g transform="translate(2.9 -0)"><g transform="translate(64 112) scale(0.962) translate(-64 -112)"><ellipse cx="16.9" cy="81.4" rx="6.1" ry="5.8" transform="rotate(-18 16.9 81.4)" fill="#F7D92E"/><ellipse cx="87.1" cy="58.6" rx="6.1" ry="5.8" transform="rotate(-18 87.1 58.6)" fill="#DDB514"/><ellipse cx="52" cy="70" rx="38" ry="29" transform="rotate(-18 52 70)" fill="url(#lw)"/><g clip-path="url(#lwc)"><g fill="#8A6A00" fill-opacity="0.2"><ellipse cx="67.3" cy="89.7" rx="0.6" ry="0.8" transform="rotate(59.4 67.3 89.7)"/><ellipse cx="35.4" cy="71.7" rx="0.8" ry="0.8" transform="rotate(172.5 35.4 71.7)"/><ellipse cx="61.2" cy="51.6" rx="0.6" ry="0.7" transform="rotate(290.8 61.2 51.6)"/><ellipse cx="52.2" cy="71.5" rx="0.7" ry="0.6" transform="rotate(85 52.2 71.5)"/><ellipse cx="43.8" cy="66.3" rx="0.9" ry="0.8" transform="rotate(210.7 43.8 66.3)"/><ellipse cx="53.9" cy="83.2" rx="0.6" ry="0.5" transform="rotate(83.6 53.9 83.2)"/><ellipse cx="83" cy="69.6" rx="0.6" ry="0.9" transform="rotate(359.1 83 69.6)"/><ellipse cx="47" cy="66.6" rx="0.7" ry="0.6" transform="rotate(221.7 47 66.6)"/><ellipse cx="39.7" cy="70.1" rx="0.9" ry="0.9" transform="rotate(179.1 39.7 70.1)"/><ellipse cx="42.4" cy="78" rx="0.9" ry="0.8" transform="rotate(132.6 42.4 78)"/><ellipse cx="76.6" cy="88.8" rx="0.4" ry="0.7" transform="rotate(45 76.6 88.8)"/><ellipse cx="32" cy="64.8" rx="0.7" ry="0.7" transform="rotate(198.7 32 64.8)"/><ellipse cx="54.7" cy="74.9" rx="0.9" ry="0.8" transform="rotate(67.3 54.7 74.9)"/><ellipse cx="55" cy="94.2" rx="0.4" ry="0.6" transform="rotate(84.6 55 94.2)"/><ellipse cx="85.5" cy="64.9" rx="0.5" ry="0.8" transform="rotate(348.8 85.5 64.9)"/><ellipse cx="54.2" cy="49.1" rx="0.6" ry="0.8" transform="rotate(274.6 54.2 49.1)"/><ellipse cx="69.9" cy="83.2" rx="0.7" ry="0.8" transform="rotate(44.1 69.9 83.2)"/><ellipse cx="62.5" cy="95.2" rx="0.4" ry="0.9" transform="rotate(72.4 62.5 95.2)"/><ellipse cx="33.6" cy="79" rx="0.7" ry="0.7" transform="rotate(147.5 33.6 79)"/><ellipse cx="24.9" cy="88.1" rx="0.3" ry="0.7" transform="rotate(138.9 24.9 88.1)"/><ellipse cx="62.9" cy="71.4" rx="0.9" ry="0.8" transform="rotate(9.7 62.9 71.4)"/><ellipse cx="77.4" cy="69.1" rx="0.6" ry="0.7" transform="rotate(357.4 77.4 69.1)"/><ellipse cx="22.3" cy="62.6" rx="0.4" ry="0.6" transform="rotate(198.2 22.3 62.6)"/><ellipse cx="31.1" cy="57" rx="0.6" ry="0.7" transform="rotate(219.2 31.1 57)"/><ellipse cx="58.3" cy="80.3" rx="0.7" ry="0.6" transform="rotate(65 58.3 80.3)"/><ellipse cx="71.1" cy="62.8" rx="0.7" ry="0.7" transform="rotate(333.7 71.1 62.8)"/><ellipse cx="48" cy="78.3" rx="0.6" ry="0.5" transform="rotate(110.4 48 78.3)"/><ellipse cx="64.4" cy="47.6" rx="0.5" ry="0.6" transform="rotate(292.9 64.4 47.6)"/><ellipse cx="39.9" cy="49.3" rx="0.6" ry="0.9" transform="rotate(246 39.9 49.3)"/><ellipse cx="74.2" cy="65.4" rx="0.8" ry="0.9" transform="rotate(345 74.2 65.4)"/><ellipse cx="78.9" cy="64.9" rx="0.7" ry="0.9" transform="rotate(346.1 78.9 64.9)"/><ellipse cx="29.9" cy="71" rx="0.6" ry="0.6" transform="rotate(176.7 29.9 71)"/><ellipse cx="62.4" cy="62.2" rx="0.6" ry="0.5" transform="rotate(315.4 62.4 62.2)"/><ellipse cx="62.8" cy="47.2" rx="0.5" ry="0.7" transform="rotate(289.9 62.8 47.2)"/><ellipse cx="56.3" cy="64.6" rx="0.7" ry="0.6" transform="rotate(301.3 56.3 64.6)"/><ellipse cx="46.2" cy="87.3" rx="0.5" ry="0.6" transform="rotate(104.4 46.2 87.3)"/><ellipse cx="71" cy="76.8" rx="0.8" ry="0.9" transform="rotate(25 71 76.8)"/><ellipse cx="83" cy="67.5" rx="0.5" ry="0.7" transform="rotate(354 83 67.5)"/><ellipse cx="51.5" cy="97" rx="0.4" ry="0.7" transform="rotate(90.8 51.5 97)"/><ellipse cx="51.2" cy="65.4" rx="0.7" ry="0.6" transform="rotate(262.3 51.2 65.4)"/><ellipse cx="69" cy="49.1" rx="0.6" ry="0.9" transform="rotate(301.8 69 49.1)"/><ellipse cx="33.1" cy="59.3" rx="0.7" ry="0.7" transform="rotate(216.5 33.1 59.3)"/><ellipse cx="63.7" cy="57.6" rx="0.7" ry="0.7" transform="rotate(305.8 63.7 57.6)"/><ellipse cx="46.9" cy="93.8" rx="0.4" ry="0.5" transform="rotate(99.4 46.9 93.8)"/><ellipse cx="38.1" cy="45.3" rx="0.3" ry="0.5" transform="rotate(246.7 38.1 45.3)"/><ellipse cx="27.9" cy="57.7" rx="0.6" ry="0.8" transform="rotate(213.7 27.9 57.7)"/><ellipse cx="36.2" cy="62.9" rx="0.7" ry="0.7" transform="rotate(210.4 36.2 62.9)"/><ellipse cx="85.2" cy="63.3" rx="0.3" ry="0.6" transform="rotate(345.1 85.2 63.3)"/><ellipse cx="61.2" cy="74.7" rx="0.6" ry="0.5" transform="rotate(34.1 61.2 74.7)"/><ellipse cx="39.2" cy="73.4" rx="0.9" ry="0.8" transform="rotate(160.9 39.2 73.4)"/><ellipse cx="44.8" cy="61.9" rx="0.8" ry="0.7" transform="rotate(235.9 44.8 61.9)"/><ellipse cx="40.6" cy="87.3" rx="0.5" ry="0.6" transform="rotate(116.7 40.6 87.3)"/><ellipse cx="59.8" cy="80.2" rx="0.7" ry="0.7" transform="rotate(59.8 59.8 80.2)"/><ellipse cx="45.3" cy="50.2" rx="0.5" ry="0.5" transform="rotate(255.6 45.3 50.2)"/><ellipse cx="43.8" cy="45" rx="0.5" ry="0.8" transform="rotate(255.9 43.8 45)"/><ellipse cx="52.8" cy="67.6" rx="0.8" ry="0.7" transform="rotate(284.7 52.8 67.6)"/><ellipse cx="81.1" cy="79.4" rx="0.4" ry="0.6" transform="rotate(22.9 81.1 79.4)"/><ellipse cx="47.6" cy="56.5" rx="0.8" ry="0.8" transform="rotate(256.1 47.6 56.5)"/><ellipse cx="49.1" cy="75.2" rx="0.7" ry="0.7" transform="rotate(112.9 49.1 75.2)"/><ellipse cx="39.5" cy="94.3" rx="0.4" ry="0.6" transform="rotate(111.4 39.5 94.3)"/><ellipse cx="25.2" cy="69.6" rx="0.7" ry="0.9" transform="rotate(181.1 25.2 69.6)"/><ellipse cx="74.8" cy="82.4" rx="0.6" ry="0.7" transform="rotate(35.5 74.8 82.4)"/><ellipse cx="48.6" cy="43" rx="0.3" ry="0.6" transform="rotate(264.4 48.6 43)"/><ellipse cx="43.8" cy="51" rx="0.6" ry="0.7" transform="rotate(251.8 43.8 51)"/><ellipse cx="82" cy="79.7" rx="0.6" ry="0.9" transform="rotate(22.9 82 79.7)"/><ellipse cx="39.5" cy="82.3" rx="0.9" ry="0.9" transform="rotate(127.9 39.5 82.3)"/><ellipse cx="59.8" cy="74.8" rx="0.6" ry="0.5" transform="rotate(38.7 59.8 74.8)"/><ellipse cx="64.4" cy="47.9" rx="0.5" ry="0.7" transform="rotate(293.2 64.4 47.9)"/><ellipse cx="48.3" cy="67.3" rx="0.9" ry="0.8" transform="rotate(223.7 48.3 67.3)"/><ellipse cx="27.7" cy="77" rx="0.6" ry="0.7" transform="rotate(159.3 27.7 77)"/><ellipse cx="38" cy="77.6" rx="0.6" ry="0.5" transform="rotate(144.5 38 77.6)"/><ellipse cx="35.6" cy="75.5" rx="0.8" ry="0.8" transform="rotate(156.2 35.6 75.5)"/><ellipse cx="64.6" cy="48.6" rx="0.5" ry="0.7" transform="rotate(294.2 64.6 48.6)"/><ellipse cx="53.9" cy="87" rx="0.7" ry="0.7" transform="rotate(85.1 53.9 87)"/><ellipse cx="28" cy="50.1" rx="0.3" ry="0.5" transform="rotate(227.5 28 50.1)"/><ellipse cx="26.9" cy="72.5" rx="0.7" ry="0.8" transform="rotate(172.7 26.9 72.5)"/><ellipse cx="76.6" cy="54.6" rx="0.5" ry="0.8" transform="rotate(320.6 76.6 54.6)"/><ellipse cx="53.6" cy="47.5" rx="0.6" ry="0.8" transform="rotate(273.1 53.6 47.5)"/><ellipse cx="42.6" cy="48.4" rx="0.5" ry="0.6" transform="rotate(251.6 42.6 48.4)"/><ellipse cx="71.4" cy="61.4" rx="0.7" ry="0.7" transform="rotate(330 71.4 61.4)"/><ellipse cx="68.1" cy="45.9" rx="0.4" ry="0.9" transform="rotate(296.9 68.1 45.9)"/><ellipse cx="72.2" cy="70.6" rx="0.6" ry="0.6" transform="rotate(2.3 72.2 70.6)"/><ellipse cx="41.3" cy="76.6" rx="0.8" ry="0.7" transform="rotate(140.8 41.3 76.6)"/><ellipse cx="69.4" cy="77.3" rx="0.8" ry="0.9" transform="rotate(28.6 69.4 77.3)"/><ellipse cx="50.8" cy="51.3" rx="0.5" ry="0.5" transform="rotate(267.2 50.8 51.3)"/><ellipse cx="81.1" cy="63.7" rx="0.5" ry="0.6" transform="rotate(344.2 81.1 63.7)"/><ellipse cx="37.2" cy="89" rx="0.6" ry="0.8" transform="rotate(120.7 37.2 89)"/><ellipse cx="49.6" cy="96.8" rx="0.3" ry="0.6" transform="rotate(93.9 49.6 96.8)"/><ellipse cx="51.1" cy="95.3" rx="0.4" ry="0.6" transform="rotate(91.5 51.1 95.3)"/><ellipse cx="45.2" cy="58.8" rx="0.8" ry="0.7" transform="rotate(245.2 45.2 58.8)"/><ellipse cx="48.2" cy="86.7" rx="0.8" ry="0.9" transform="rotate(99.9 48.2 86.7)"/><ellipse cx="28.7" cy="73.8" rx="0.7" ry="0.7" transform="rotate(168.1 28.7 73.8)"/><ellipse cx="49.1" cy="81.3" rx="0.7" ry="0.7" transform="rotate(101 49.1 81.3)"/><ellipse cx="49.8" cy="81.8" rx="0.9" ry="0.9" transform="rotate(98.1 49.8 81.8)"/><ellipse cx="83.7" cy="75.3" rx="0.6" ry="0.9" transform="rotate(12.4 83.7 75.3)"/><ellipse cx="50.6" cy="66.4" rx="0.8" ry="0.7" transform="rotate(253.7 50.6 66.4)"/><ellipse cx="79.3" cy="75.2" rx="0.6" ry="0.8" transform="rotate(14.1 79.3 75.2)"/><ellipse cx="52.2" cy="72.4" rx="0.8" ry="0.7" transform="rotate(86.5 52.2 72.4)"/><ellipse cx="68.6" cy="78.6" rx="0.7" ry="0.7" transform="rotate(34 68.6 78.6)"/><ellipse cx="69.3" cy="59.7" rx="0.6" ry="0.6" transform="rotate(322 69.3 59.7)"/><ellipse cx="60.5" cy="45.9" rx="0.5" ry="0.7" transform="rotate(285 60.5 45.9)"/><ellipse cx="66.9" cy="73.6" rx="0.7" ry="0.7" transform="rotate(17.7 66.9 73.6)"/><ellipse cx="35.8" cy="65.8" rx="0.8" ry="0.8" transform="rotate(198.7 35.8 65.8)"/><ellipse cx="71.2" cy="47.9" rx="0.4" ry="0.9" transform="rotate(303.7 71.2 47.9)"/><ellipse cx="79.4" cy="72.3" rx="0.5" ry="0.5" transform="rotate(6.3 79.4 72.3)"/><ellipse cx="77.2" cy="56" rx="0.6" ry="0.8" transform="rotate(323.9 77.2 56)"/><ellipse cx="55.3" cy="76.2" rx="0.9" ry="0.8" transform="rotate(67.8 55.3 76.2)"/><ellipse cx="29.7" cy="56.5" rx="0.6" ry="0.7" transform="rotate(218.3 29.7 56.5)"/><ellipse cx="58.5" cy="54.8" rx="0.6" ry="0.6" transform="rotate(288 58.5 54.8)"/><ellipse cx="40.1" cy="82" rx="0.7" ry="0.8" transform="rotate(127.1 40.1 82)"/><ellipse cx="59.4" cy="65.3" rx="0.6" ry="0.5" transform="rotate(320.5 59.4 65.3)"/><ellipse cx="22.4" cy="68.3" rx="0.5" ry="0.6" transform="rotate(184.2 22.4 68.3)"/><ellipse cx="50.9" cy="76.6" rx="0.6" ry="0.5" transform="rotate(97.1 50.9 76.6)"/><ellipse cx="22.2" cy="70.7" rx="0.6" ry="0.8" transform="rotate(178.2 22.2 70.7)"/><ellipse cx="58.4" cy="77.5" rx="0.9" ry="0.9" transform="rotate(56.9 58.4 77.5)"/><ellipse cx="29.6" cy="65.8" rx="0.7" ry="0.8" transform="rotate(193.9 29.6 65.8)"/><ellipse cx="48.4" cy="50.2" rx="0.5" ry="0.5" transform="rotate(262 48.4 50.2)"/><ellipse cx="59.8" cy="58.7" rx="0.6" ry="0.5" transform="rotate(297.8 59.8 58.7)"/><ellipse cx="36.2" cy="86.1" rx="0.6" ry="0.8" transform="rotate(126.8 36.2 86.1)"/><ellipse cx="66" cy="90.6" rx="0.5" ry="0.7" transform="rotate(62.7 66 90.6)"/><ellipse cx="69.5" cy="91.6" rx="0.5" ry="0.8" transform="rotate(58.3 69.5 91.6)"/><ellipse cx="76.8" cy="57.4" rx="0.5" ry="0.6" transform="rotate(326.3 76.8 57.4)"/><ellipse cx="57.9" cy="44.2" rx="0.4" ry="0.7" transform="rotate(280 57.9 44.2)"/><ellipse cx="81.8" cy="55.2" rx="0.3" ry="0.7" transform="rotate(327 81.8 55.2)"/><ellipse cx="84.6" cy="60.5" rx="0.4" ry="0.8" transform="rotate(339.1 84.6 60.5)"/><ellipse cx="73.4" cy="71.2" rx="0.7" ry="0.7" transform="rotate(4 73.4 71.2)"/><ellipse cx="27.5" cy="55.1" rx="0.5" ry="0.8" transform="rotate(218.6 27.5 55.1)"/><ellipse cx="70.4" cy="92.6" rx="0.4" ry="0.7" transform="rotate(58.1 70.4 92.6)"/><ellipse cx="64.1" cy="61.5" rx="0.9" ry="0.9" transform="rotate(317.4 64.1 61.5)"/><ellipse cx="22.1" cy="61.8" rx="0.5" ry="0.8" transform="rotate(199.7 22.1 61.8)"/><ellipse cx="68.1" cy="58.9" rx="0.5" ry="0.5" transform="rotate(317.8 68.1 58.9)"/><ellipse cx="39.4" cy="76.5" rx="0.8" ry="0.7" transform="rotate(146 39.4 76.5)"/><ellipse cx="60.6" cy="54.8" rx="0.6" ry="0.6" transform="rotate(293.4 60.6 54.8)"/><ellipse cx="75.1" cy="73" rx="0.7" ry="0.7" transform="rotate(9.7 75.1 73)"/><ellipse cx="81" cy="73.7" rx="0.5" ry="0.6" transform="rotate(9.5 81 73.7)"/><ellipse cx="79.2" cy="86.5" rx="0.4" ry="0.7" transform="rotate(38.5 79.2 86.5)"/><ellipse cx="72.5" cy="57.9" rx="0.5" ry="0.5" transform="rotate(322.2 72.5 57.9)"/><ellipse cx="53.5" cy="87.9" rx="0.7" ry="0.8" transform="rotate(86.4 53.5 87.9)"/><ellipse cx="56.1" cy="46.3" rx="0.5" ry="0.8" transform="rotate(277.5 56.1 46.3)"/><ellipse cx="51.6" cy="88.1" rx="0.6" ry="0.7" transform="rotate(91.1 51.6 88.1)"/><ellipse cx="33.4" cy="70.9" rx="0.7" ry="0.7" transform="rotate(176.2 33.4 70.9)"/><ellipse cx="45.4" cy="71.3" rx="0.9" ry="0.8" transform="rotate(165.2 45.4 71.3)"/><ellipse cx="24.3" cy="57.2" rx="0.5" ry="0.8" transform="rotate(211.1 24.3 57.2)"/><ellipse cx="47.7" cy="42.7" rx="0.3" ry="0.7" transform="rotate(263.1 47.7 42.7)"/><ellipse cx="50.3" cy="71" rx="0.9" ry="0.8" transform="rotate(141.7 50.3 71)"/><ellipse cx="28.1" cy="59.8" rx="0.7" ry="0.9" transform="rotate(209.3 28.1 59.8)"/><ellipse cx="57.6" cy="82.4" rx="0.8" ry="0.8" transform="rotate(70.9 57.6 82.4)"/><ellipse cx="61.6" cy="52.3" rx="0.5" ry="0.5" transform="rotate(292.5 61.6 52.3)"/><ellipse cx="29.5" cy="88.2" rx="0.5" ry="0.7" transform="rotate(133.4 29.5 88.2)"/><ellipse cx="30.1" cy="74.1" rx="0.7" ry="0.8" transform="rotate(166.1 30.1 74.1)"/><ellipse cx="27.5" cy="56.7" rx="0.6" ry="0.8" transform="rotate(215.5 27.5 56.7)"/><ellipse cx="52.2" cy="53.1" rx="0.6" ry="0.6" transform="rotate(270.5 52.2 53.1)"/><ellipse cx="58.4" cy="46" rx="0.6" ry="0.9" transform="rotate(281.5 58.4 46)"/><ellipse cx="62.5" cy="94.1" rx="0.5" ry="0.9" transform="rotate(71.6 62.5 94.1)"/><ellipse cx="69.7" cy="77.1" rx="0.7" ry="0.8" transform="rotate(27.8 69.7 77.1)"/><ellipse cx="72" cy="90" rx="0.4" ry="0.6" transform="rotate(52.6 72 90)"/><ellipse cx="43.9" cy="56.3" rx="0.6" ry="0.6" transform="rotate(245.6 43.9 56.3)"/><ellipse cx="58.8" cy="88.7" rx="0.7" ry="0.8" transform="rotate(74.5 58.8 88.7)"/><ellipse cx="58" cy="92.4" rx="0.5" ry="0.6" transform="rotate(78.4 58 92.4)"/><ellipse cx="39" cy="56.5" rx="0.6" ry="0.6" transform="rotate(233.7 39 56.5)"/><ellipse cx="57.5" cy="75.1" rx="0.9" ry="0.8" transform="rotate(50.8 57.5 75.1)"/><ellipse cx="41.1" cy="75" rx="0.9" ry="0.9" transform="rotate(148.9 41.1 75)"/><ellipse cx="49" cy="66.7" rx="0.9" ry="0.8" transform="rotate(235.7 49 66.7)"/><ellipse cx="32.1" cy="59.7" rx="0.6" ry="0.7" transform="rotate(214.1 32.1 59.7)"/><ellipse cx="73.5" cy="66" rx="0.7" ry="0.8" transform="rotate(346.4 73.5 66)"/><ellipse cx="37.6" cy="57.5" rx="0.6" ry="0.6" transform="rotate(228.9 37.6 57.5)"/><ellipse cx="52.9" cy="48" rx="0.5" ry="0.7" transform="rotate(271.8 52.9 48)"/><ellipse cx="35" cy="68.9" rx="0.8" ry="0.8" transform="rotate(185 35 68.9)"/><ellipse cx="80.7" cy="72.8" rx="0.5" ry="0.7" transform="rotate(7.2 80.7 72.8)"/><ellipse cx="56.9" cy="90.8" rx="0.6" ry="0.7" transform="rotate(79.7 56.9 90.8)"/><ellipse cx="73.6" cy="80" rx="0.5" ry="0.6" transform="rotate(31.2 73.6 80)"/><ellipse cx="58.3" cy="55" rx="0.6" ry="0.6" transform="rotate(287.7 58.3 55)"/><ellipse cx="53.7" cy="75.9" rx="0.7" ry="0.6" transform="rotate(77.5 53.7 75.9)"/><ellipse cx="68.5" cy="87.7" rx="0.7" ry="0.8" transform="rotate(54.6 68.5 87.7)"/><ellipse cx="54.2" cy="79.1" rx="0.8" ry="0.7" transform="rotate(79.6 54.2 79.1)"/><ellipse cx="69.2" cy="81.6" rx="0.7" ry="0.8" transform="rotate(41.6 69.2 81.6)"/><ellipse cx="60.8" cy="92.1" rx="0.5" ry="0.7" transform="rotate(73.1 60.8 92.1)"/><ellipse cx="67.3" cy="76.9" rx="0.8" ry="0.7" transform="rotate(30.6 67.3 76.9)"/><ellipse cx="65.4" cy="77.1" rx="0.8" ry="0.7" transform="rotate(34.7 65.4 77.1)"/><ellipse cx="62.8" cy="51.9" rx="0.7" ry="0.8" transform="rotate(294.5 62.8 51.9)"/><ellipse cx="71.8" cy="70.9" rx="0.6" ry="0.6" transform="rotate(3.3 71.8 70.9)"/><ellipse cx="70.5" cy="61.5" rx="0.8" ry="0.8" transform="rotate(328.8 70.5 61.5)"/><ellipse cx="76.9" cy="74.2" rx="0.7" ry="0.9" transform="rotate(12.4 76.9 74.2)"/><ellipse cx="55.7" cy="49.2" rx="0.5" ry="0.6" transform="rotate(277.7 55.7 49.2)"/><ellipse cx="61.1" cy="66.5" rx="1" ry="0.9" transform="rotate(333.4 61.1 66.5)"/><ellipse cx="57" cy="46.9" rx="0.5" ry="0.7" transform="rotate(279.4 57 46.9)"/><ellipse cx="62.8" cy="83.8" rx="0.7" ry="0.8" transform="rotate(59 62.8 83.8)"/><ellipse cx="39.5" cy="55.7" rx="0.8" ry="0.8" transform="rotate(236.2 39.5 55.7)"/><ellipse cx="70.3" cy="74.9" rx="0.6" ry="0.5" transform="rotate(19.2 70.3 74.9)"/><ellipse cx="37.4" cy="91.9" rx="0.5" ry="0.8" transform="rotate(116.9 37.4 91.9)"/><ellipse cx="63.8" cy="82.3" rx="0.6" ry="0.5" transform="rotate(53.8 63.8 82.3)"/><ellipse cx="39.4" cy="54.4" rx="0.6" ry="0.6" transform="rotate(238.3 39.4 54.4)"/><ellipse cx="28.4" cy="88.2" rx="0.4" ry="0.7" transform="rotate(134.7 28.4 88.2)"/><ellipse cx="41.6" cy="49.7" rx="0.6" ry="0.7" transform="rotate(248.7 41.6 49.7)"/><ellipse cx="31.6" cy="64.2" rx="0.6" ry="0.6" transform="rotate(200.3 31.6 64.2)"/><ellipse cx="32.1" cy="70.5" rx="0.6" ry="0.6" transform="rotate(178 32.1 70.5)"/><ellipse cx="65.4" cy="94.3" rx="0.4" ry="0.7" transform="rotate(67.2 65.4 94.3)"/><ellipse cx="54" cy="74.7" rx="0.7" ry="0.6" transform="rotate(72.1 54 74.7)"/><ellipse cx="66.2" cy="58.2" rx="0.7" ry="0.8" transform="rotate(312.7 66.2 58.2)"/><ellipse cx="55.6" cy="92.1" rx="0.5" ry="0.7" transform="rotate(83 55.6 92.1)"/><ellipse cx="49.8" cy="50" rx="0.6" ry="0.7" transform="rotate(265.1 49.8 50)"/><ellipse cx="46.8" cy="90.9" rx="0.7" ry="0.8" transform="rotate(100.8 46.8 90.9)"/><ellipse cx="43" cy="52.2" rx="0.6" ry="0.6" transform="rotate(249 43 52.2)"/><ellipse cx="77.8" cy="54" rx="0.4" ry="0.6" transform="rotate(320.9 77.8 54)"/><ellipse cx="38.4" cy="48.1" rx="0.5" ry="0.8" transform="rotate(244.5 38.4 48.1)"/><ellipse cx="85" cy="64.3" rx="0.4" ry="0.6" transform="rotate(347.2 85 64.3)"/><ellipse cx="72.7" cy="69.7" rx="0.6" ry="0.7" transform="rotate(358.8 72.7 69.7)"/><ellipse cx="66.6" cy="68.3" rx="0.7" ry="0.7" transform="rotate(351.5 66.6 68.3)"/><ellipse cx="38.7" cy="59.8" rx="0.6" ry="0.6" transform="rotate(225.3 38.7 59.8)"/><ellipse cx="59.7" cy="49.3" rx="0.6" ry="0.8" transform="rotate(285.9 59.7 49.3)"/><ellipse cx="60.4" cy="45.1" rx="0.5" ry="0.9" transform="rotate(284.4 60.4 45.1)"/><ellipse cx="67.9" cy="45.6" rx="0.3" ry="0.7" transform="rotate(296.4 67.9 45.6)"/><ellipse cx="44.2" cy="51.2" rx="0.8" ry="0.9" transform="rotate(252.6 44.2 51.2)"/><ellipse cx="38.7" cy="55" rx="0.7" ry="0.8" transform="rotate(235.8 38.7 55)"/><ellipse cx="48.4" cy="79.5" rx="0.7" ry="0.7" transform="rotate(106.2 48.4 79.5)"/><ellipse cx="53.5" cy="71.3" rx="0.6" ry="0.5" transform="rotate(49.3 53.5 71.3)"/><ellipse cx="21.7" cy="76.8" rx="0.4" ry="0.5" transform="rotate(163.6 21.7 76.8)"/><ellipse cx="44.1" cy="63" rx="0.8" ry="0.7" transform="rotate(229.2 44.1 63)"/><ellipse cx="45.2" cy="87.6" rx="0.7" ry="0.8" transform="rotate(106.5 45.2 87.6)"/><ellipse cx="32.7" cy="78.9" rx="0.7" ry="0.8" transform="rotate(148.8 32.7 78.9)"/><ellipse cx="67.9" cy="80.8" rx="0.7" ry="0.8" transform="rotate(41.7 67.9 80.8)"/><ellipse cx="70.2" cy="46.5" rx="0.3" ry="0.6" transform="rotate(300.6 70.2 46.5)"/><ellipse cx="37.7" cy="59.1" rx="0.8" ry="0.8" transform="rotate(225.1 37.7 59.1)"/><ellipse cx="59.5" cy="61.7" rx="0.7" ry="0.6" transform="rotate(304.6 59.5 61.7)"/><ellipse cx="71.7" cy="63.6" rx="0.7" ry="0.8" transform="rotate(337 71.7 63.6)"/><ellipse cx="60" cy="56.8" rx="0.8" ry="0.8" transform="rotate(294.7 60 56.8)"/><ellipse cx="73.1" cy="70.4" rx="0.6" ry="0.6" transform="rotate(1.3 73.1 70.4)"/><ellipse cx="42.6" cy="80.5" rx="0.6" ry="0.5" transform="rotate(124.5 42.6 80.5)"/><ellipse cx="56.9" cy="59.2" rx="0.8" ry="0.7" transform="rotate(289.1 56.9 59.2)"/><ellipse cx="20.6" cy="61.5" rx="0.5" ry="0.8" transform="rotate(199.5 20.6 61.5)"/><ellipse cx="41.3" cy="62.2" rx="0.8" ry="0.8" transform="rotate(223.8 41.3 62.2)"/><ellipse cx="80.5" cy="85.3" rx="0.4" ry="0.6" transform="rotate(35.1 80.5 85.3)"/><ellipse cx="51.7" cy="82.8" rx="0.7" ry="0.7" transform="rotate(91 51.7 82.8)"/><ellipse cx="60.6" cy="45.4" rx="0.5" ry="0.8" transform="rotate(285 60.6 45.4)"/><ellipse cx="49.7" cy="56.5" rx="0.7" ry="0.6" transform="rotate(262.6 49.7 56.5)"/><ellipse cx="44.1" cy="87.1" rx="0.8" ry="0.8" transform="rotate(109.5 44.1 87.1)"/><ellipse cx="62.4" cy="69.8" rx="1" ry="0.9" transform="rotate(358.5 62.4 69.8)"/><ellipse cx="73.4" cy="60.8" rx="0.7" ry="0.8" transform="rotate(330.6 73.4 60.8)"/><ellipse cx="55.4" cy="58.4" rx="0.8" ry="0.7" transform="rotate(282.4 55.4 58.4)"/><ellipse cx="85.6" cy="67" rx="0.5" ry="0.9" transform="rotate(353.4 85.6 67)"/><ellipse cx="78.3" cy="81.8" rx="0.5" ry="0.7" transform="rotate(30.5 78.3 81.8)"/><ellipse cx="64.4" cy="63.9" rx="0.8" ry="0.7" transform="rotate(327.3 64.4 63.9)"/><ellipse cx="75.5" cy="87" rx="0.5" ry="0.8" transform="rotate(43.4 75.5 87)"/><ellipse cx="71.7" cy="73" rx="0.6" ry="0.6" transform="rotate(11.2 71.7 73)"/><ellipse cx="33.1" cy="53.6" rx="0.4" ry="0.5" transform="rotate(228.8 33.1 53.6)"/><ellipse cx="85.8" cy="61.8" rx="0.3" ry="0.7" transform="rotate(342.3 85.8 61.8)"/><ellipse cx="32.6" cy="62.5" rx="0.7" ry="0.7" transform="rotate(206.7 32.6 62.5)"/><ellipse cx="32.8" cy="80.9" rx="0.7" ry="0.8" transform="rotate(143.4 32.8 80.9)"/><ellipse cx="59.7" cy="83.9" rx="0.8" ry="0.8" transform="rotate(67.1 59.7 83.9)"/><ellipse cx="53.5" cy="77.1" rx="0.9" ry="0.9" transform="rotate(81 53.5 77.1)"/><ellipse cx="64.5" cy="84.9" rx="0.6" ry="0.6" transform="rotate(57.4 64.5 84.9)"/><ellipse cx="50.4" cy="86.3" rx="0.7" ry="0.7" transform="rotate(94.2 50.4 86.3)"/><ellipse cx="71.7" cy="83.4" rx="0.5" ry="0.5" transform="rotate(41.8 71.7 83.4)"/><ellipse cx="66.3" cy="75.9" rx="0.6" ry="0.6" transform="rotate(28.4 66.3 75.9)"/><ellipse cx="41.4" cy="82.5" rx="0.8" ry="0.8" transform="rotate(123 41.4 82.5)"/><ellipse cx="38.4" cy="54.1" rx="0.7" ry="0.8" transform="rotate(236.9 38.4 54.1)"/><ellipse cx="44.1" cy="55.8" rx="0.7" ry="0.7" transform="rotate(246.9 44.1 55.8)"/><ellipse cx="51.2" cy="49.9" rx="0.7" ry="0.8" transform="rotate(268.4 51.2 49.9)"/><ellipse cx="28.6" cy="50.3" rx="0.3" ry="0.6" transform="rotate(227.8 28.6 50.3)"/><ellipse cx="35.1" cy="46" rx="0.3" ry="0.7" transform="rotate(241.8 35.1 46)"/></g><g fill="#FFFFFF" fill-opacity="0.22"><ellipse cx="55.4" cy="63.1" rx="0.6" ry="0.5" transform="rotate(325.9 55.4 63.1)"/><ellipse cx="46.9" cy="80.3" rx="0.3" ry="0.4" transform="rotate(95.5 46.9 80.3)"/><ellipse cx="36.7" cy="64.2" rx="0.4" ry="0.4" transform="rotate(192.6 36.7 64.2)"/><ellipse cx="62.5" cy="56.1" rx="0.4" ry="0.5" transform="rotate(311.6 62.5 56.1)"/><ellipse cx="59.2" cy="71.9" rx="0.6" ry="0.5" transform="rotate(41.7 59.2 71.9)"/><ellipse cx="54.4" cy="77.6" rx="0.4" ry="0.5" transform="rotate(73.2 54.4 77.6)"/><ellipse cx="30.2" cy="65.2" rx="0.5" ry="0.5" transform="rotate(183.8 30.2 65.2)"/><ellipse cx="51.4" cy="58.1" rx="0.5" ry="0.4" transform="rotate(281.3 51.4 58.1)"/><ellipse cx="30.7" cy="72.6" rx="0.4" ry="0.5" transform="rotate(151.1 30.7 72.6)"/><ellipse cx="47.5" cy="79.7" rx="0.3" ry="0.4" transform="rotate(94 47.5 79.7)"/><ellipse cx="62.6" cy="66.9" rx="0.4" ry="0.4" transform="rotate(5.5 62.6 66.9)"/><ellipse cx="55.8" cy="78.8" rx="0.4" ry="0.5" transform="rotate(70.9 55.8 78.8)"/><ellipse cx="67.2" cy="60.5" rx="0.4" ry="0.5" transform="rotate(335.3 67.2 60.5)"/><ellipse cx="29.7" cy="66.7" rx="0.5" ry="0.5" transform="rotate(177 29.7 66.7)"/><ellipse cx="63.2" cy="69.6" rx="0.4" ry="0.4" transform="rotate(21.5 63.2 69.6)"/><ellipse cx="40.1" cy="75.1" rx="0.3" ry="0.3" transform="rotate(122.8 40.1 75.1)"/><ellipse cx="38.3" cy="51.4" rx="0.2" ry="0.4" transform="rotate(244.5 38.3 51.4)"/><ellipse cx="54.7" cy="74.8" rx="0.5" ry="0.5" transform="rotate(66.9 54.7 74.8)"/><ellipse cx="52.3" cy="80.4" rx="0.3" ry="0.3" transform="rotate(81.5 52.3 80.4)"/><ellipse cx="31.3" cy="58.1" rx="0.4" ry="0.5" transform="rotate(214.2 31.3 58.1)"/><ellipse cx="70.3" cy="74.2" rx="0.3" ry="0.5" transform="rotate(30.4 70.3 74.2)"/><ellipse cx="25.7" cy="67.8" rx="0.3" ry="0.5" transform="rotate(173.2 25.7 67.8)"/><ellipse cx="56.8" cy="75.1" rx="0.5" ry="0.5" transform="rotate(60.7 56.8 75.1)"/><ellipse cx="44" cy="66.8" rx="0.4" ry="0.3" transform="rotate(166.9 44 66.8)"/><ellipse cx="56.5" cy="77.7" rx="0.4" ry="0.5" transform="rotate(67 56.5 77.7)"/><ellipse cx="33.8" cy="69.4" rx="0.5" ry="0.5" transform="rotate(161.2 33.8 69.4)"/><ellipse cx="37.6" cy="77.3" rx="0.3" ry="0.4" transform="rotate(123.4 37.6 77.3)"/><ellipse cx="38.3" cy="65.4" rx="0.4" ry="0.3" transform="rotate(185.1 38.3 65.4)"/><ellipse cx="44.6" cy="70.8" rx="0.5" ry="0.4" transform="rotate(121.2 44.6 70.8)"/><ellipse cx="38.3" cy="56" rx="0.5" ry="0.5" transform="rotate(235 38.3 56)"/><ellipse cx="41.7" cy="66.7" rx="0.6" ry="0.5" transform="rotate(171.8 41.7 66.7)"/><ellipse cx="31.1" cy="74.3" rx="0.4" ry="0.5" transform="rotate(144.7 31.1 74.3)"/><ellipse cx="36.5" cy="64.7" rx="0.4" ry="0.4" transform="rotate(188.7 36.5 64.7)"/><ellipse cx="34.7" cy="66.1" rx="0.4" ry="0.3" transform="rotate(179.5 34.7 66.1)"/><ellipse cx="32.6" cy="74" rx="0.4" ry="0.5" transform="rotate(143.4 32.6 74)"/><ellipse cx="50.7" cy="50.5" rx="0.3" ry="0.5" transform="rotate(274.2 50.7 50.5)"/><ellipse cx="31.8" cy="73" rx="0.3" ry="0.3" transform="rotate(148.1 31.8 73)"/><ellipse cx="54.8" cy="52.6" rx="0.3" ry="0.4" transform="rotate(285.9 54.8 52.6)"/><ellipse cx="36" cy="67.5" rx="0.5" ry="0.5" transform="rotate(170 36 67.5)"/><ellipse cx="29" cy="72.5" rx="0.4" ry="0.5" transform="rotate(153.6 29 72.5)"/><ellipse cx="51.7" cy="56" rx="0.4" ry="0.4" transform="rotate(280 51.7 56)"/><ellipse cx="71.7" cy="60.7" rx="0.2" ry="0.3" transform="rotate(340.5 71.7 60.7)"/><ellipse cx="34.5" cy="77.2" rx="0.4" ry="0.5" transform="rotate(130.4 34.5 77.2)"/><ellipse cx="45.5" cy="76.8" rx="0.5" ry="0.5" transform="rotate(101.9 45.5 76.8)"/><ellipse cx="60.2" cy="70.6" rx="0.5" ry="0.5" transform="rotate(32.5 60.2 70.6)"/><ellipse cx="69.6" cy="57.2" rx="0.3" ry="0.4" transform="rotate(326.7 69.6 57.2)"/><ellipse cx="55.2" cy="50.2" rx="0.2" ry="0.4" transform="rotate(284.5 55.2 50.2)"/><ellipse cx="50.8" cy="74.3" rx="0.5" ry="0.5" transform="rotate(81.9 50.8 74.3)"/><ellipse cx="61" cy="75.4" rx="0.5" ry="0.5" transform="rotate(50.2 61 75.4)"/><ellipse cx="55.1" cy="78.5" rx="0.4" ry="0.4" transform="rotate(72.4 55.1 78.5)"/><ellipse cx="66.7" cy="63.5" rx="0.4" ry="0.4" transform="rotate(347.9 66.7 63.5)"/><ellipse cx="67" cy="57.8" rx="0.3" ry="0.3" transform="rotate(325.3 67 57.8)"/><ellipse cx="54.3" cy="56.1" rx="0.5" ry="0.5" transform="rotate(289.4 54.3 56.1)"/><ellipse cx="66.3" cy="63.3" rx="0.4" ry="0.4" transform="rotate(346.7 66.3 63.3)"/><ellipse cx="50.9" cy="74.6" rx="0.4" ry="0.4" transform="rotate(81.7 50.9 74.6)"/><ellipse cx="59.6" cy="78.3" rx="0.3" ry="0.3" transform="rotate(60.5 59.6 78.3)"/><ellipse cx="33.1" cy="58.6" rx="0.4" ry="0.5" transform="rotate(215.6 33.1 58.6)"/><ellipse cx="26.8" cy="59.5" rx="0.2" ry="0.4" transform="rotate(204.3 26.8 59.5)"/><ellipse cx="65.1" cy="73" rx="0.4" ry="0.4" transform="rotate(33.5 65.1 73)"/><ellipse cx="73.2" cy="64.8" rx="0.3" ry="0.5" transform="rotate(355.7 73.2 64.8)"/><ellipse cx="55.3" cy="58.9" rx="0.5" ry="0.4" transform="rotate(300.1 55.3 58.9)"/><ellipse cx="38" cy="72.5" rx="0.4" ry="0.4" transform="rotate(137.8 38 72.5)"/><ellipse cx="28.8" cy="67.9" rx="0.3" ry="0.3" transform="rotate(172 28.8 67.9)"/><ellipse cx="40.2" cy="64.6" rx="0.6" ry="0.5" transform="rotate(194.2 40.2 64.6)"/><ellipse cx="30.6" cy="61.9" rx="0.4" ry="0.4" transform="rotate(198.6 30.6 61.9)"/><ellipse cx="43.2" cy="52.6" rx="0.4" ry="0.5" transform="rotate(254.1 43.2 52.6)"/><ellipse cx="37.5" cy="61.8" rx="0.5" ry="0.5" transform="rotate(209 37.5 61.8)"/><ellipse cx="69.7" cy="70.4" rx="0.3" ry="0.4" transform="rotate(18.1 69.7 70.4)"/><ellipse cx="47.2" cy="60.1" rx="0.5" ry="0.4" transform="rotate(259 47.2 60.1)"/><ellipse cx="51.4" cy="68.8" rx="0.5" ry="0.4" transform="rotate(60.9 51.4 68.8)"/><ellipse cx="58.1" cy="57.6" rx="0.4" ry="0.4" transform="rotate(305.4 58.1 57.6)"/><ellipse cx="55.3" cy="50.2" rx="0.2" ry="0.4" transform="rotate(284.5 55.3 50.2)"/><ellipse cx="41.3" cy="52.3" rx="0.4" ry="0.5" transform="rotate(249.9 41.3 52.3)"/><ellipse cx="39.1" cy="75.3" rx="0.5" ry="0.5" transform="rotate(124.8 39.1 75.3)"/><ellipse cx="48.9" cy="77.5" rx="0.4" ry="0.5" transform="rotate(90.3 48.9 77.5)"/><ellipse cx="56.4" cy="59.4" rx="0.5" ry="0.5" transform="rotate(306.4 56.4 59.4)"/><ellipse cx="51.1" cy="72.4" rx="0.5" ry="0.4" transform="rotate(78.2 51.1 72.4)"/><ellipse cx="36.9" cy="55.4" rx="0.4" ry="0.5" transform="rotate(233.2 36.9 55.4)"/><ellipse cx="58.4" cy="76.3" rx="0.4" ry="0.4" transform="rotate(59.2 58.4 76.3)"/><ellipse cx="47.7" cy="81.8" rx="0.2" ry="0.3" transform="rotate(93.2 47.7 81.8)"/><ellipse cx="48.7" cy="69.3" rx="0.6" ry="0.5" transform="rotate(93.8 48.7 69.3)"/><ellipse cx="42.5" cy="59.5" rx="0.6" ry="0.5" transform="rotate(236.8 42.5 59.5)"/><ellipse cx="41.5" cy="60.4" rx="0.6" ry="0.5" transform="rotate(228.5 41.5 60.4)"/><ellipse cx="57.6" cy="58.6" rx="0.5" ry="0.5" transform="rotate(307.2 57.6 58.6)"/><ellipse cx="59.2" cy="73.1" rx="0.4" ry="0.4" transform="rotate(46.9 59.2 73.1)"/><ellipse cx="62.3" cy="63.5" rx="0.4" ry="0.4" transform="rotate(343.8 62.3 63.5)"/></g><ellipse cx="52" cy="70" rx="38" ry="29" transform="rotate(-18 52 70)" fill="url(#lwe)"/><ellipse cx="72.9" cy="87.4" rx="20.9" ry="11.6" fill="url(#lwk)"/></g><ellipse cx="38.3" cy="55.5" rx="12.9" ry="6.1" transform="rotate(-38 38.3 55.5)" fill="url(#so)"/><ellipse cx="36.8" cy="54.9" rx="3.8" ry="1.7" transform="rotate(-38 36.8 54.9)" fill="url(#sp)"/><g transform="translate(88 88) rotate(-6)"><path d="M-22 0 C-22 20.2 -12.1 23.8 0 23.8 C12.1 23.8 22 20.2 22 0 Z" fill="url(#lhr)"/><g fill="#000" fill-opacity=".13"><circle cx="-11.6" cy="18.5" r=".65"/><circle cx="-12.5" cy="19" r=".65"/><circle cx="1" cy="18.7" r=".65"/><circle cx="14.8" cy="13.3" r=".65"/><circle cx="-18.1" cy="12.7" r=".65"/><circle cx="-19.1" cy="8.7" r=".65"/><circle cx="-1.2" cy="16" r=".65"/><circle cx="-12.8" cy="16.7" r=".65"/><circle cx="-2.5" cy="16.4" r=".65"/><circle cx="-0.6" cy="18.4" r=".65"/><circle cx="0.5" cy="21.2" r=".65"/><circle cx="12.4" cy="16.8" r=".65"/><circle cx="10.6" cy="19.2" r=".65"/><circle cx="2" cy="21.5" r=".65"/><circle cx="-1.1" cy="21.3" r=".65"/><circle cx="-16.6" cy="11" r=".65"/></g><g transform="scale(1 0.7)"><circle r="22" fill="#F3D22A"/><circle r="20.2" fill="url(#lhp)"/><circle r="18.5" fill="url(#lhf)"/><g stroke="#FFFBE0" stroke-width="1" stroke-linecap="round"><path d="M0 0 L18.3 2.6"/><path d="M0 0 L13.3 12.8"/><path d="M0 0 L3.2 18.2"/><path d="M0 0 L-8.1 16.6"/><path d="M0 0 L-16.3 8.7"/><path d="M0 0 L-18.3 -2.6"/><path d="M0 0 L-13.3 -12.8"/><path d="M0 0 L-3.2 -18.2"/><path d="M0 0 L8.1 -16.6"/><path d="M0 0 L16.3 -8.7"/></g><g stroke="#FFFFE0" stroke-opacity=".55" stroke-width=".7" stroke-linecap="round"><path d="M7.1 1.9 L16.3 4.4"/><path d="M6.7 2.8 L15.5 6.4"/><path d="M5.9 3.3 L14.2 8.1"/><path d="M6.5 4.9 L12.8 9.6"/><path d="M3.5 4.3 L10.2 12.7"/><path d="M2.9 4.7 L7.8 12.6"/><path d="M2.4 5.4 L6.9 15.2"/><path d="M1.8 5.8 L4.9 15.8"/><path d="M0.3 5.7 L0.7 14.4"/><path d="M-0.6 7.8 L-1.3 17.3"/><path d="M-1.2 5.6 L-3.2 15.7"/><path d="M-2.2 6.4 L-5.2 15.2"/><path d="M-3.2 4.8 L-7.5 11.5"/><path d="M-3.7 4.4 L-11.1 13.1"/><path d="M-5.3 4.8 L-11.9 10.8"/><path d="M-4.9 3.4 L-13.4 9.4"/><path d="M-7.9 3 L-13.5 5.1"/><path d="M-7.8 1.9 L-16.5 4"/><path d="M-8.7 1 L-15.8 1.8"/><path d="M-7.6 -0.1 L-15 -0.2"/><path d="M-7.8 -2.1 L-14.3 -3.9"/><path d="M-7 -2.9 L-14.9 -6.1"/><path d="M-7.6 -4.3 L-14.6 -8.3"/><path d="M-4.7 -3.5 L-11.5 -8.6"/><path d="M-4.2 -5.2 L-9.5 -11.9"/><path d="M-4.1 -6.7 L-7.7 -12.5"/><path d="M-3 -6.7 L-6.4 -14.1"/><path d="M-1.9 -6.2 L-4.8 -15.5"/><path d="M-0.3 -6.9 L-0.9 -17.5"/><path d="M0.5 -5.9 L1.3 -17.1"/><path d="M1.5 -7.4 L3.1 -15.1"/><path d="M1.9 -5.4 L5.2 -15.3"/><path d="M4.5 -6.8 L8.2 -12.6"/><path d="M5.1 -6 L10.2 -12"/><path d="M4.3 -3.9 L12.6 -11.5"/><path d="M5.3 -3.8 L12.7 -9"/><path d="M7.5 -2.8 L16 -6.1"/><path d="M8.1 -2 L14.7 -3.5"/><path d="M8.2 -0.9 L14.2 -1.6"/><path d="M7.3 0.1 L15.4 0.2"/></g><g fill="#FFFCE6"><ellipse cx="5.9" cy="2.9" rx="1.3" ry=".8" transform="rotate(26 5.9 2.9)"/><ellipse cx="-4.6" cy="4.7" rx="1.3" ry=".8" transform="rotate(134 -4.6 4.7)"/><ellipse cx="-3.1" cy="-5.8" rx="1.3" ry=".8" transform="rotate(242 -3.1 -5.8)"/><ellipse cx="6.5" cy="-1.1" rx="1.3" ry=".8" transform="rotate(350 6.5 -1.1)"/></g><circle r="2.2" fill="#FFFBE0"/><g fill="#FFFFFF"><ellipse cx="-7.9" cy="-7" rx="3.5" ry="1.8" fill-opacity=".5" transform="rotate(-30 -7.9 -7)"/><ellipse cx="6.2" cy="-9.7" rx="1.8" ry="0.9" fill-opacity=".4"/></g></g></g></g></g></svg>