<svg xmlns="http://www.w3.org/2000/svg" viewBox="0 0 128 128" width="128" height="128"><defs><linearGradient id="bb" x1="0" y1="0" x2="0" y2="1"><stop offset="0" stop-color="#FFF1A6"/><stop offset="0.3" stop-color="#FBDA45"/><stop offset="0.7" stop-color="#EDB521"/><stop offset="1" stop-color="#B98410"/></linearGradient><radialGradient id="bt" cx="0.5" cy="0.5" r="0.5"><stop offset="0" stop-color="#2A1E12"/><stop offset="0.7" stop-color="#3E2C18"/><stop offset="1" stop-color="#6A5230"/></radialGradient><linearGradient id="kc" x1="0" y1="0" x2="1" y2="0"><stop offset="0" stop-color="#A8A456"/><stop offset="0.5" stop-color="#7E7A38"/><stop offset="1" stop-color="#4E4A22"/></linearGradient><radialGradient id="kt" cx="0.5" cy="0.5" r="0.5"><stop offset="0" stop-color="#5A4428"/><stop offset="0.6" stop-color="#3E2E1A"/><stop offset="1" stop-color="#6A5A34"/></radialGradient><radialGradient id="kn" cx="0.5" cy="0.5" r="0.5"><stop offset="0" stop-color="#D6D06A"/><stop offset="0.7" stop-color="#A9A84A"/><stop offset="1" stop-color="#8A8A3A" stop-opacity="0.00"/></radialGradient><radialGradient id="sp" cx="0.5" cy="0.5" r="0.5"><stop offset="0" stop-color="#FFFFFF" stop-opacity="0.9"/><stop offset="1" stop-color="#FFFFFF" stop-opacity="0.00"/></radialGradient><radialGradient id="so" cx="0.5" cy="0.5" r="0.5"><stop offset="0" stop-color="#FFFFFF" stop-opacity="0.5"/><stop offset="1" stop-color="#FFFFFF" stop-opacity="0.00"/></radialGradient><radialGradient id="g1" cx="0.5" cy="0.5" r="0.5"><stop offset="0" stop-color="#0B2226" stop-opacity="0.3"/><stop offset="1" stop-color="#0B2226" stop-opacity="0.00"/></radialGradient><radialGradient id="g2" cx="0.5" cy="0.5" r="0.5"><stop offset="0" stop-color="#0B2226" stop-opacity="0.4"/><stop offset="1" stop-color="#0B2226" stop-opacity="0.00"/></radialGradient></defs><ellipse cx="64" cy="113" rx="42" ry="7" fill="url(#g1)"/><ellipse cx="64" cy="112.2" rx="26" ry="2.6" fill="url(#g2)"/><g transform="translate(64 112) scale(1.040) translate(-64 -112)"><g transform="translate(-7 9.5)"><linearGradient id="bn0" gradientUnits="userSpaceOnUse" x1="32" y1="31" x2="49.4" y2="52.1"><stop offset="0" stop-color="#7E8A34" stop-opacity="0.9"/><stop offset="0.3" stop-color="#A9B040" stop-opacity="0.7"/><stop offset="1" stop-color="#C9C44A" stop-opacity="0.00"/></linearGradient><path d="M34.7 29.9 L35.4 31.6 36.2 33.2 37.2 34.7 38.3 36.2 39.6 37.4 41.1 38.6 42.6 39.6 44.2 40.4 45.9 41.2 47.6 41.8 49.3 42.4 50.9 42.9 52.6 43.4 54.2 43.8 55.8 44.3 57.3 44.7 58.8 45.3 60.3 45.9 61.7 46.5 63.1 47.2 64.6 47.8 66.1 48.3 67.6 48.8 69.1 49.2 70.7 49.6 72.3 49.9 73.9 50.2 75.5 50.4 77.1 50.6 78.8 50.7 80.4 50.7 82.1 50.7 83.8 50.6 85.5 50.5 87.2 50.3 88.9 50.3 90.7 50.3 92.5 50.4 94.4 50.6 96.3 50.7 98.4 50.8 100.4 50.8 102.5 50.7 104.6 50.4 106.7 50 108.7 49.4 110.7 48.5 112.6 47.4 117.4 54.6 115.4 56 113.4 57.5 111.5 59.1 109.6 60.7 107.6 62.3 105.6 63.9 103.6 65.5 101.5 67 99.3 68.3 97.1 69.5 94.8 70.6 92.4 71.4 90 71.9 87.5 72.2 85.1 72.4 82.6 72.5 80.2 72.5 77.8 72.4 75.4 72.3 73 72 70.6 71.7 68.3 71.3 65.9 70.9 63.6 70.3 61.4 69.7 59.1 69 56.9 68.2 54.7 67.3 52.6 66.4 50.5 65.3 48.5 64.1 46.6 62.7 44.8 61.2 43.2 59.5 41.8 57.6 40.4 55.7 39.2 53.7 38.1 51.7 37.1 49.6 36.1 47.6 35.2 45.6 34.4 43.5 33.6 41.6 32.8 39.6 32 37.7 31.1 35.9 30.2 34 29.3 32.1 Z" fill="url(#bb)"/><path d="M34.5 29.9 L35.3 31.6 36.1 33.3 37 34.8 38.2 36.2 39.5 37.5 40.9 38.7 42.4 39.7 44 40.6 45.6 41.4 47.3 42.1 49 42.7 50.7 43.2 52.3 43.7 54 44.2 55.5 44.7 57.1 45.2 58.6 45.7 60 46.4 61.4 47 62.9 47.7 64.4 48.3 65.9 48.8 67.4 49.3 69 49.7 70.6 50.1 72.2 50.4 73.8 50.7 75.4 50.9 77.1 51.1 78.8 51.2 80.4 51.3 82.1 51.2 83.8 51.2 85.5 51 87.2 50.9 89 50.8 90.8 50.8 92.6 50.9 94.5 51 96.5 51.1 98.5 51.1 100.5 51.1 102.6 51 104.7 50.7 106.8 50.2 108.9 49.6 110.8 48.7 112.7 47.6 114.2 49.7 112.2 51 110.3 52 108.2 53 106.2 53.8 104.2 54.5 102.1 55.1 100.1 55.6 98 56 96 56.3 94 56.6 92 56.9 90 57.1 88.1 57.3 86.1 57.6 84.2 57.7 82.3 57.8 80.4 57.8 78.5 57.7 76.6 57.6 74.7 57.4 72.8 57.2 71 56.9 69.1 56.5 67.3 56.1 65.6 55.6 63.8 55 62.1 54.4 60.4 53.7 58.7 53 57.1 52.2 55.5 51.4 53.8 50.6 52.2 49.8 50.7 48.9 49.1 48 47.5 47.1 46 46.1 44.5 45 43 43.9 41.6 42.8 40.2 41.5 38.9 40.2 37.7 38.8 36.5 37.3 35.5 35.7 34.5 34.1 33.7 32.4 32.9 30.6 Z" fill="#FFF7C8" fill-opacity=".35"/><path d="M31.3 31.3 L32.1 33.1 33 34.9 33.9 36.6 34.9 38.3 35.9 40 36.9 41.7 38 43.3 39.2 44.9 40.4 46.5 41.6 48 43 49.5 44.4 50.9 45.8 52.3 47.4 53.6 49 54.8 50.6 56 52.3 57.1 54.1 58 56 58.9 57.9 59.8 59.8 60.5 61.7 61.2 63.7 61.8 65.7 62.4 67.7 62.9 69.8 63.3 71.8 63.6 73.9 63.9 76 64.1 78.2 64.3 80.3 64.3 82.4 64.3 84.6 64.2 86.8 64.1 88.9 63.8 91.1 63.4 93.2 63 95.4 62.4 97.5 61.7 99.6 60.9 101.6 60 103.7 59 105.7 58 107.7 56.9 109.7 55.7 111.7 54.5 113.6 53.2 115.6 51.9 117.3 54.4 115.3 55.8 113.3 57.3 111.4 58.9 109.4 60.5 107.5 62 105.5 63.6 103.5 65.1 101.4 66.6 99.2 67.9 97 69 94.7 70 92.3 70.8 89.9 71.4 87.5 71.7 85 71.8 82.6 71.9 80.2 72 77.8 71.9 75.4 71.7 73 71.5 70.7 71.2 68.4 70.8 66.1 70.3 63.8 69.8 61.5 69.1 59.3 68.4 57.1 67.7 54.9 66.8 52.8 65.9 50.7 64.9 48.7 63.7 46.8 62.3 45.1 60.7 43.5 59.1 42 57.3 40.7 55.4 39.4 53.4 38.3 51.5 37.3 49.4 36.3 47.4 35.4 45.4 34.6 43.4 33.8 41.5 32.9 39.5 32.1 37.7 31.2 35.8 30.3 34 29.5 32.1 Z" fill="#A06A08" fill-opacity=".2"/><path d="M34.7 29.9 L35.4 31.6 36.2 33.2 37.2 34.7 38.3 36.2 39.6 37.4 41.1 38.6 42.6 39.6 44.2 40.4 45.9 41.2 47.6 41.8 49.3 42.4 50.9 42.9 52.6 43.4 54.2 43.8 55.8 44.3 57.3 44.7 58.8 45.3 60.3 45.9 61.7 46.5 63.1 47.2 64.6 47.8 66.1 48.3 67.6 48.8 69.1 49.2 70.7 49.6 72.3 49.9 73.9 50.2 75.5 50.4 77.1 50.6 78.8 50.7 80.4 50.7 82.1 50.7 83.8 50.6 85.5 50.5 87.2 50.3 88.9 50.3 90.7 50.3 92.5 50.4 94.4 50.6 96.3 50.7 98.4 50.8 100.4 50.8 102.5 50.7 104.6 50.4 106.7 50 108.7 49.4 110.7 48.5 112.6 47.4 117.4 54.6 115.4 56 113.4 57.5 111.5 59.1 109.6 60.7 107.6 62.3 105.6 63.9 103.6 65.5 101.5 67 99.3 68.3 97.1 69.5 94.8 70.6 92.4 71.4 90 71.9 87.5 72.2 85.1 72.4 82.6 72.5 80.2 72.5 77.8 72.4 75.4 72.3 73 72 70.6 71.7 68.3 71.3 65.9 70.9 63.6 70.3 61.4 69.7 59.1 69 56.9 68.2 54.7 67.3 52.6 66.4 50.5 65.3 48.5 64.1 46.6 62.7 44.8 61.2 43.2 59.5 41.8 57.6 40.4 55.7 39.2 53.7 38.1 51.7 37.1 49.6 36.1 47.6 35.2 45.6 34.4 43.5 33.6 41.6 32.8 39.6 32 37.7 31.1 35.9 30.2 34 29.3 32.1 Z" fill="url(#bn0)"/><path d="M36.5 37.3 L37.7 38.8 38.9 40.2 40.2 41.5 41.6 42.8 43 43.9 44.5 45 46 46.1 47.5 47.1 49.1 48 50.7 48.9 52.2 49.8 53.8 50.6 55.5 51.4 57.1 52.2 58.7 53 60.4 53.7 62.1 54.4 63.8 55 65.6 55.6 67.3 56.1 69.1 56.5 71 56.9 72.8 57.2 74.7 57.4 76.6 57.6 78.5 57.7 80.4 57.8 82.3 57.8 84.2 57.7 86.1 57.6 88.1 57.3 90 57.1 92 56.9 94 56.6 96 56.3 98 56 100.1 55.6 102.1 55.1 104.2 54.5 106.2 53.8 108.2 53" stroke="#FFF8D0" stroke-opacity=".5" stroke-width=".9" fill="none" stroke-linecap="round"/><path d="M33.9 36.6 L34.9 38.3 35.9 40 36.9 41.7 38 43.3 39.2 44.9 40.4 46.5 41.6 48 43 49.5 44.4 50.9 45.8 52.3 47.4 53.6 49 54.8 50.6 56 52.3 57.1 54.1 58 56 58.9 57.9 59.8 59.8 60.5 61.7 61.2 63.7 61.8 65.7 62.4 67.7 62.9 69.8 63.3 71.8 63.6 73.9 63.9 76 64.1 78.2 64.3 80.3 64.3 82.4 64.3 84.6 64.2 86.8 64.1 88.9 63.8 91.1 63.4 93.2 63 95.4 62.4 97.5 61.7 99.6 60.9 101.6 60 103.7 59 105.7 58 107.7 56.9 109.7 55.7 111.7 54.5" stroke="#B07A0C" stroke-opacity=".35" stroke-width=".9" fill="none" stroke-linecap="round"/><g fill="#6A3E0E" fill-opacity=".45"><circle cx="51.7" cy="53" r="0.4"/><circle cx="59.3" cy="53.5" r="0.5"/><circle cx="65" cy="56.1" r="0.5"/><circle cx="69" cy="57.5" r="0.5"/><circle cx="75.5" cy="60.9" r="0.6"/><circle cx="78.3" cy="60" r="0.4"/><circle cx="86.5" cy="63.9" r="0.6"/><circle cx="94.4" cy="59.7" r="0.6"/></g><path d="M55.3 48.2 L56.9 48.9 58.4 49.6 59.9 50.3 61.5 51 63.1 51.6 64.7 52.2 66.4 52.7 68.1 53.2 69.8 53.6 71.5 54 73.3 54.3 75 54.5 76.8 54.7" stroke="#FFFFFF" stroke-opacity=".45" stroke-width="1.4" fill="none" stroke-linecap="round"/><g transform="translate(115 51) rotate(146.4)"><ellipse rx="2.1" ry="3.1" fill="url(#bt)"/><ellipse cx="-.9" cy="-.6" rx=".6" ry="1" fill="#8A7048" fill-opacity=".6"/></g><path d="M34.7 29.9 L35.4 31.6 36.2 33.2 37.2 34.7 38.3 36.2 39.6 37.4 41.1 38.6 42.6 39.6 44.2 40.4 45.9 41.2 47.6 41.8 49.3 42.4 50.9 42.9 52.6 43.4 54.2 43.8 55.8 44.3 57.3 44.7 58.8 45.3 60.3 45.9 61.7 46.5 63.1 47.2 64.6 47.8 66.1 48.3 67.6 48.8 69.1 49.2 70.7 49.6 72.3 49.9 73.9 50.2 75.5 50.4 77.1 50.6 78.8 50.7 80.4 50.7 82.1 50.7 83.8 50.6 85.5 50.5 87.2 50.3 88.9 50.3 90.7 50.3 92.5 50.4 94.4 50.6 96.3 50.7 98.4 50.8 100.4 50.8 102.5 50.7 104.6 50.4 106.7 50 108.7 49.4 110.7 48.5 112.6 47.4 117.4 54.6 115.4 56 113.4 57.5 111.5 59.1 109.6 60.7 107.6 62.3 105.6 63.9 103.6 65.5 101.5 67 99.3 68.3 97.1 69.5 94.8 70.6 92.4 71.4 90 71.9 87.5 72.2 85.1 72.4 82.6 72.5 80.2 72.5 77.8 72.4 75.4 72.3 73 72 70.6 71.7 68.3 71.3 65.9 70.9 63.6 70.3 61.4 69.7 59.1 69 56.9 68.2 54.7 67.3 52.6 66.4 50.5 65.3 48.5 64.1 46.6 62.7 44.8 61.2 43.2 59.5 41.8 57.6 40.4 55.7 39.2 53.7 38.1 51.7 37.1 49.6 36.1 47.6 35.2 45.6 34.4 43.5 33.6 41.6 32.8 39.6 32 37.7 31.1 35.9 30.2 34 29.3 32.1 Z" fill="#5A3A06" fill-opacity="0.2"/><path d="M33.9 31.5 L34.3 33.8 34.8 36.1 35.4 38.2 36.3 40.3 37.4 42.2 38.7 43.9 40.1 45.5 41.6 47 43.1 48.4 44.7 49.6 46.4 50.7 48 51.7 49.7 52.6 51.3 53.5 52.8 54.3 54.3 55.1 55.7 56 57.1 56.8 58.4 57.8 59.7 58.6 61.1 59.4 62.5 60.2 63.9 60.9 65.4 61.5 66.9 62.1 68.4 62.6 70 63 71.6 63.4 73.2 63.7 74.8 63.9 76.4 64 78.1 64.1 79.7 64.2 81.4 64.1 83.1 64 84.8 64 86.6 64.1 88.5 64.2 90.4 64.4 92.4 64.5 94.5 64.6 96.6 64.6 98.8 64.4 101 64.1 103.2 63.5 105.4 62.8 107.5 61.8 109.5 60.5 114.5 67.5 112.4 69.1 110.3 70.8 108.2 72.5 106.2 74.2 104.1 76 102 77.7 99.8 79.3 97.5 80.8 95.2 82.2 92.7 83.4 90.3 84.4 87.7 85.2 85.1 85.7 82.5 85.9 79.9 86 77.3 85.9 74.7 85.8 72.1 85.5 69.6 85.2 67.1 84.7 64.6 84.1 62.1 83.4 59.7 82.6 57.3 81.8 55 80.8 52.7 79.7 50.5 78.5 48.3 77.2 46.1 75.8 44.1 74.3 42.1 72.7 40.4 70.8 38.8 68.8 37.4 66.6 36.1 64.3 35 62 34.1 59.5 33.3 57.1 32.6 54.6 32 52.1 31.5 49.7 31 47.2 30.6 44.7 30.1 42.3 29.7 39.9 29.1 37.4 28.6 35 28.1 32.5 Z" transform="translate(.4 -1.8)" fill="#4A2E04" fill-opacity=".22"/><path d="M33.9 31.5 L34.3 33.8 34.8 36.1 35.4 38.2 36.3 40.3 37.4 42.2 38.7 43.9 40.1 45.5 41.6 47 43.1 48.4 44.7 49.6 46.4 50.7 48 51.7 49.7 52.6 51.3 53.5 52.8 54.3 54.3 55.1 55.7 56 57.1 56.8 58.4 57.8 59.7 58.6 61.1 59.4 62.5 60.2 63.9 60.9 65.4 61.5 66.9 62.1 68.4 62.6 70 63 71.6 63.4 73.2 63.7 74.8 63.9 76.4 64 78.1 64.1 79.7 64.2 81.4 64.1 83.1 64 84.8 64 86.6 64.1 88.5 64.2 90.4 64.4 92.4 64.5 94.5 64.6 96.6 64.6 98.8 64.4 101 64.1 103.2 63.5 105.4 62.8 107.5 61.8 109.5 60.5 114.5 67.5 112.4 69.1 110.3 70.8 108.2 72.5 106.2 74.2 104.1 76 102 77.7 99.8 79.3 97.5 80.8 95.2 82.2 92.7 83.4 90.3 84.4 87.7 85.2 85.1 85.7 82.5 85.9 79.9 86 77.3 85.9 74.7 85.8 72.1 85.5 69.6 85.2 67.1 84.7 64.6 84.1 62.1 83.4 59.7 82.6 57.3 81.8 55 80.8 52.7 79.7 50.5 78.5 48.3 77.2 46.1 75.8 44.1 74.3 42.1 72.7 40.4 70.8 38.8 68.8 37.4 66.6 36.1 64.3 35 62 34.1 59.5 33.3 57.1 32.6 54.6 32 52.1 31.5 49.7 31 47.2 30.6 44.7 30.1 42.3 29.7 39.9 29.1 37.4 28.6 35 28.1 32.5 Z" transform="translate(.2 -.9)" fill="#4A2E04" fill-opacity=".18"/><linearGradient id="bn1" gradientUnits="userSpaceOnUse" x1="31" y1="32" x2="44.9" y2="60.6"><stop offset="0" stop-color="#7E8A34" stop-opacity="0.9"/><stop offset="0.3" stop-color="#A9B040" stop-opacity="0.7"/><stop offset="1" stop-color="#C9C44A" stop-opacity="0.00"/></linearGradient><path d="M33.9 31.5 L34.3 33.8 34.8 36.1 35.4 38.2 36.3 40.3 37.4 42.2 38.7 43.9 40.1 45.5 41.6 47 43.1 48.4 44.7 49.6 46.4 50.7 48 51.7 49.7 52.6 51.3 53.5 52.8 54.3 54.3 55.1 55.7 56 57.1 56.8 58.4 57.8 59.7 58.6 61.1 59.4 62.5 60.2 63.9 60.9 65.4 61.5 66.9 62.1 68.4 62.6 70 63 71.6 63.4 73.2 63.7 74.8 63.9 76.4 64 78.1 64.1 79.7 64.2 81.4 64.1 83.1 64 84.8 64 86.6 64.1 88.5 64.2 90.4 64.4 92.4 64.5 94.5 64.6 96.6 64.6 98.8 64.4 101 64.1 103.2 63.5 105.4 62.8 107.5 61.8 109.5 60.5 114.5 67.5 112.4 69.1 110.3 70.8 108.2 72.5 106.2 74.2 104.1 76 102 77.7 99.8 79.3 97.5 80.8 95.2 82.2 92.7 83.4 90.3 84.4 87.7 85.2 85.1 85.7 82.5 85.9 79.9 86 77.3 85.9 74.7 85.8 72.1 85.5 69.6 85.2 67.1 84.7 64.6 84.1 62.1 83.4 59.7 82.6 57.3 81.8 55 80.8 52.7 79.7 50.5 78.5 48.3 77.2 46.1 75.8 44.1 74.3 42.1 72.7 40.4 70.8 38.8 68.8 37.4 66.6 36.1 64.3 35 62 34.1 59.5 33.3 57.1 32.6 54.6 32 52.1 31.5 49.7 31 47.2 30.6 44.7 30.1 42.3 29.7 39.9 29.1 37.4 28.6 35 28.1 32.5 Z" fill="url(#bb)"/><path d="M33.7 31.6 L34.1 33.9 34.6 36.1 35.3 38.3 36.2 40.3 37.2 42.2 38.5 44 39.8 45.6 41.3 47.1 42.9 48.5 44.5 49.8 46.1 50.9 47.7 51.9 49.3 52.9 50.9 53.8 52.5 54.7 54 55.5 55.4 56.4 56.7 57.3 58.1 58.2 59.4 59.1 60.8 59.9 62.3 60.7 63.7 61.4 65.2 62 66.7 62.6 68.3 63.1 69.8 63.5 71.4 63.9 73.1 64.2 74.7 64.4 76.4 64.6 78 64.7 79.7 64.7 81.4 64.7 83.2 64.6 84.9 64.5 86.7 64.6 88.6 64.7 90.5 64.8 92.5 64.9 94.6 65 96.8 64.9 98.9 64.7 101.1 64.3 103.3 63.8 105.5 63 107.6 62 109.6 60.7 111.1 62.8 109.1 64.2 107 65.4 104.8 66.5 102.7 67.4 100.5 68.2 98.4 68.8 96.2 69.4 94.1 69.8 92 70.2 89.9 70.5 87.8 70.7 85.8 70.9 83.8 71.1 81.8 71.2 79.8 71.3 77.8 71.2 75.8 71.1 73.9 70.9 72 70.6 70.1 70.3 68.2 69.9 66.4 69.3 64.6 68.7 62.8 68.1 61 67.3 59.3 66.5 57.6 65.6 56 64.7 54.4 63.6 52.8 62.5 51.3 61.4 49.8 60.2 48.3 59 46.8 57.7 45.3 56.4 43.8 55 42.4 53.6 41 52 39.7 50.4 38.5 48.7 37.3 46.9 36.2 45 35.2 43 34.3 40.9 33.5 38.8 32.9 36.5 32.4 34.2 32 31.8 Z" fill="#FFF7C8" fill-opacity=".35"/><path d="M30.3 32.1 L30.7 34.5 31.2 36.9 31.8 39.3 32.5 41.5 33.1 43.8 33.9 46 34.7 48.1 35.6 50.2 36.6 52.3 37.6 54.3 38.7 56.2 39.9 58.1 41.2 59.9 42.6 61.7 44 63.3 45.6 64.9 47.2 66.4 48.9 67.8 50.7 69 52.6 70.2 54.5 71.3 56.4 72.4 58.4 73.3 60.4 74.2 62.4 74.9 64.5 75.6 66.6 76.2 68.8 76.7 70.9 77.1 73.1 77.4 75.3 77.6 77.6 77.8 79.8 77.8 82.1 77.7 84.4 77.6 86.6 77.3 88.9 76.8 91.1 76.2 93.4 75.5 95.6 74.7 97.8 73.8 100 72.8 102.1 71.6 104.2 70.4 106.3 69.1 108.4 67.8 110.5 66.4 112.6 64.9 114.4 67.3 112.3 68.9 110.2 70.6 108.1 72.3 106 74 104 75.7 101.8 77.3 99.6 78.9 97.4 80.4 95 81.8 92.6 82.9 90.2 83.9 87.6 84.7 85 85.1 82.5 85.4 79.9 85.4 77.3 85.4 74.7 85.2 72.2 85 69.7 84.6 67.2 84.2 64.7 83.6 62.3 82.9 59.9 82.1 57.5 81.2 55.2 80.3 53 79.2 50.7 78 48.6 76.7 46.4 75.4 44.4 73.9 42.5 72.3 40.7 70.4 39.1 68.4 37.7 66.3 36.5 64 35.4 61.7 34.4 59.3 33.6 56.9 32.9 54.5 32.3 52 31.7 49.6 31.2 47.1 30.8 44.7 30.3 42.3 29.8 39.8 29.3 37.4 28.7 34.9 28.3 32.4 Z" fill="#A06A08" fill-opacity=".2"/><path d="M33.9 31.5 L34.3 33.8 34.8 36.1 35.4 38.2 36.3 40.3 37.4 42.2 38.7 43.9 40.1 45.5 41.6 47 43.1 48.4 44.7 49.6 46.4 50.7 48 51.7 49.7 52.6 51.3 53.5 52.8 54.3 54.3 55.1 55.7 56 57.1 56.8 58.4 57.8 59.7 58.6 61.1 59.4 62.5 60.2 63.9 60.9 65.4 61.5 66.9 62.1 68.4 62.6 70 63 71.6 63.4 73.2 63.7 74.8 63.9 76.4 64 78.1 64.1 79.7 64.2 81.4 64.1 83.1 64 84.8 64 86.6 64.1 88.5 64.2 90.4 64.4 92.4 64.5 94.5 64.6 96.6 64.6 98.8 64.4 101 64.1 103.2 63.5 105.4 62.8 107.5 61.8 109.5 60.5 114.5 67.5 112.4 69.1 110.3 70.8 108.2 72.5 106.2 74.2 104.1 76 102 77.7 99.8 79.3 97.5 80.8 95.2 82.2 92.7 83.4 90.3 84.4 87.7 85.2 85.1 85.7 82.5 85.9 79.9 86 77.3 85.9 74.7 85.8 72.1 85.5 69.6 85.2 67.1 84.7 64.6 84.1 62.1 83.4 59.7 82.6 57.3 81.8 55 80.8 52.7 79.7 50.5 78.5 48.3 77.2 46.1 75.8 44.1 74.3 42.1 72.7 40.4 70.8 38.8 68.8 37.4 66.6 36.1 64.3 35 62 34.1 59.5 33.3 57.1 32.6 54.6 32 52.1 31.5 49.7 31 47.2 30.6 44.7 30.1 42.3 29.7 39.9 29.1 37.4 28.6 35 28.1 32.5 Z" fill="url(#bn1)"/><path d="M34.3 40.9 L35.2 43 36.2 45 37.3 46.9 38.5 48.7 39.7 50.4 41 52 42.4 53.6 43.8 55 45.3 56.4 46.8 57.7 48.3 59 49.8 60.2 51.3 61.4 52.8 62.5 54.4 63.6 56 64.7 57.6 65.6 59.3 66.5 61 67.3 62.8 68.1 64.6 68.7 66.4 69.3 68.2 69.9 70.1 70.3 72 70.6 73.9 70.9 75.8 71.1 77.8 71.2 79.8 71.3 81.8 71.2 83.8 71.1 85.8 70.9 87.8 70.7 89.9 70.5 92 70.2 94.1 69.8 96.2 69.4 98.4 68.8 100.5 68.2 102.7 67.4 104.8 66.5" stroke="#FFF8D0" stroke-opacity=".5" stroke-width=".9" fill="none" stroke-linecap="round"/><path d="M31.8 39.3 L32.5 41.5 33.1 43.8 33.9 46 34.7 48.1 35.6 50.2 36.6 52.3 37.6 54.3 38.7 56.2 39.9 58.1 41.2 59.9 42.6 61.7 44 63.3 45.6 64.9 47.2 66.4 48.9 67.8 50.7 69 52.6 70.2 54.5 71.3 56.4 72.4 58.4 73.3 60.4 74.2 62.4 74.9 64.5 75.6 66.6 76.2 68.8 76.7 70.9 77.1 73.1 77.4 75.3 77.6 77.6 77.8 79.8 77.8 82.1 77.7 84.4 77.6 86.6 77.3 88.9 76.8 91.1 76.2 93.4 75.5 95.6 74.7 97.8 73.8 100 72.8 102.1 71.6 104.2 70.4 106.3 69.1 108.4 67.8" stroke="#B07A0C" stroke-opacity=".35" stroke-width=".9" fill="none" stroke-linecap="round"/><g fill="#6A3E0E" fill-opacity=".45"><circle cx="44.9" cy="61.7" r="0.6"/><circle cx="53.6" cy="66.3" r="0.4"/><circle cx="56.2" cy="68.2" r="0.4"/><circle cx="65.2" cy="70.5" r="0.7"/><circle cx="71.6" cy="71.3" r="0.5"/><circle cx="75.5" cy="72.1" r="0.5"/><circle cx="84.4" cy="72.7" r="0.6"/><circle cx="86.2" cy="74.7" r="0.7"/></g><path d="M51.7 58.1 L53.1 59.1 54.6 60.2 56 61.2 57.5 62.2 59.1 63.1 60.6 63.9 62.2 64.7 63.9 65.3 65.5 66 67.2 66.5 69 67 70.7 67.4 72.5 67.7" stroke="#FFFFFF" stroke-opacity=".45" stroke-width="1.4" fill="none" stroke-linecap="round"/><g transform="translate(112 64) rotate(144.5)"><ellipse rx="2.1" ry="3.1" fill="url(#bt)"/><ellipse cx="-.9" cy="-.6" rx=".6" ry="1" fill="#8A7048" fill-opacity=".6"/></g><path d="M33.9 31.5 L34.3 33.8 34.8 36.1 35.4 38.2 36.3 40.3 37.4 42.2 38.7 43.9 40.1 45.5 41.6 47 43.1 48.4 44.7 49.6 46.4 50.7 48 51.7 49.7 52.6 51.3 53.5 52.8 54.3 54.3 55.1 55.7 56 57.1 56.8 58.4 57.8 59.7 58.6 61.1 59.4 62.5 60.2 63.9 60.9 65.4 61.5 66.9 62.1 68.4 62.6 70 63 71.6 63.4 73.2 63.7 74.8 63.9 76.4 64 78.1 64.1 79.7 64.2 81.4 64.1 83.1 64 84.8 64 86.6 64.1 88.5 64.2 90.4 64.4 92.4 64.5 94.5 64.6 96.6 64.6 98.8 64.4 101 64.1 103.2 63.5 105.4 62.8 107.5 61.8 109.5 60.5 114.5 67.5 112.4 69.1 110.3 70.8 108.2 72.5 106.2 74.2 104.1 76 102 77.7 99.8 79.3 97.5 80.8 95.2 82.2 92.7 83.4 90.3 84.4 87.7 85.2 85.1 85.7 82.5 85.9 79.9 86 77.3 85.9 74.7 85.8 72.1 85.5 69.6 85.2 67.1 84.7 64.6 84.1 62.1 83.4 59.7 82.6 57.3 81.8 55 80.8 52.7 79.7 50.5 78.5 48.3 77.2 46.1 75.8 44.1 74.3 42.1 72.7 40.4 70.8 38.8 68.8 37.4 66.6 36.1 64.3 35 62 34.1 59.5 33.3 57.1 32.6 54.6 32 52.1 31.5 49.7 31 47.2 30.6 44.7 30.1 42.3 29.7 39.9 29.1 37.4 28.6 35 28.1 32.5 Z" fill="#5A3A06" fill-opacity="0.09"/><path d="M32.9 33.1 L32.8 36.2 32.9 39.1 33.1 42 33.7 44.8 34.4 47.4 35.4 49.9 36.5 52.3 37.8 54.5 39.2 56.5 40.6 58.4 42.1 60.2 43.7 61.8 45.2 63.3 46.8 64.6 48.2 65.9 49.6 67.1 51 68.3 52.2 69.5 53.4 70.7 54.7 71.9 55.9 72.9 57.3 73.9 58.6 74.8 60 75.6 61.4 76.3 62.9 77 64.4 77.5 65.9 78 67.4 78.5 69 78.8 70.6 79.1 72.3 79.3 73.9 79.3 75.6 79.4 77.3 79.3 79.1 79.3 80.9 79.4 82.9 79.6 84.9 79.7 87 79.8 89.2 79.8 91.5 79.7 93.8 79.4 96.2 78.9 98.5 78.2 100.9 77.3 103.2 76.1 105.4 74.6 110.6 81.4 108.3 83.3 106 85.2 103.8 87.1 101.6 89 99.3 90.9 97 92.7 94.6 94.4 92.2 96.1 89.7 97.5 87 98.8 84.4 99.8 81.6 100.6 78.8 101 76 101.2 73.2 101.1 70.4 101 67.7 100.7 64.9 100.2 62.2 99.6 59.6 98.9 57 98.1 54.4 97.1 51.9 95.9 49.5 94.7 47.1 93.3 44.8 91.8 42.6 90.1 40.4 88.4 38.4 86.5 36.4 84.5 34.6 82.3 33 80 31.7 77.4 30.5 74.8 29.6 72 28.9 69.2 28.3 66.3 27.9 63.4 27.6 60.5 27.4 57.5 27.3 54.5 27.2 51.5 27.2 48.5 27.2 45.5 27.2 42.4 27.1 39.3 27 36.1 27.1 32.9 Z" transform="translate(.4 -1.8)" fill="#4A2E04" fill-opacity=".22"/><path d="M32.9 33.1 L32.8 36.2 32.9 39.1 33.1 42 33.7 44.8 34.4 47.4 35.4 49.9 36.5 52.3 37.8 54.5 39.2 56.5 40.6 58.4 42.1 60.2 43.7 61.8 45.2 63.3 46.8 64.6 48.2 65.9 49.6 67.1 51 68.3 52.2 69.5 53.4 70.7 54.7 71.9 55.9 72.9 57.3 73.9 58.6 74.8 60 75.6 61.4 76.3 62.9 77 64.4 77.5 65.9 78 67.4 78.5 69 78.8 70.6 79.1 72.3 79.3 73.9 79.3 75.6 79.4 77.3 79.3 79.1 79.3 80.9 79.4 82.9 79.6 84.9 79.7 87 79.8 89.2 79.8 91.5 79.7 93.8 79.4 96.2 78.9 98.5 78.2 100.9 77.3 103.2 76.1 105.4 74.6 110.6 81.4 108.3 83.3 106 85.2 103.8 87.1 101.6 89 99.3 90.9 97 92.7 94.6 94.4 92.2 96.1 89.7 97.5 87 98.8 84.4 99.8 81.6 100.6 78.8 101 76 101.2 73.2 101.1 70.4 101 67.7 100.7 64.9 100.2 62.2 99.6 59.6 98.9 57 98.1 54.4 97.1 51.9 95.9 49.5 94.7 47.1 93.3 44.8 91.8 42.6 90.1 40.4 88.4 38.4 86.5 36.4 84.5 34.6 82.3 33 80 31.7 77.4 30.5 74.8 29.6 72 28.9 69.2 28.3 66.3 27.9 63.4 27.6 60.5 27.4 57.5 27.3 54.5 27.2 51.5 27.2 48.5 27.2 45.5 27.2 42.4 27.1 39.3 27 36.1 27.1 32.9 Z" transform="translate(.2 -.9)" fill="#4A2E04" fill-opacity=".18"/><linearGradient id="bn2" gradientUnits="userSpaceOnUse" x1="30" y1="33" x2="39.2" y2="70.5"><stop offset="0" stop-color="#7E8A34" stop-opacity="0.9"/><stop offset="0.3" stop-color="#A9B040" stop-opacity="0.7"/><stop offset="1" stop-color="#C9C44A" stop-opacity="0.00"/></linearGradient><path d="M32.9 33.1 L32.8 36.2 32.9 39.1 33.1 42 33.7 44.8 34.4 47.4 35.4 49.9 36.5 52.3 37.8 54.5 39.2 56.5 40.6 58.4 42.1 60.2 43.7 61.8 45.2 63.3 46.8 64.6 48.2 65.9 49.6 67.1 51 68.3 52.2 69.5 53.4 70.7 54.7 71.9 55.9 72.9 57.3 73.9 58.6 74.8 60 75.6 61.4 76.3 62.9 77 64.4 77.5 65.9 78 67.4 78.5 69 78.8 70.6 79.1 72.3 79.3 73.9 79.3 75.6 79.4 77.3 79.3 79.1 79.3 80.9 79.4 82.9 79.6 84.9 79.7 87 79.8 89.2 79.8 91.5 79.7 93.8 79.4 96.2 78.9 98.5 78.2 100.9 77.3 103.2 76.1 105.4 74.6 110.6 81.4 108.3 83.3 106 85.2 103.8 87.1 101.6 89 99.3 90.9 97 92.7 94.6 94.4 92.2 96.1 89.7 97.5 87 98.8 84.4 99.8 81.6 100.6 78.8 101 76 101.2 73.2 101.1 70.4 101 67.7 100.7 64.9 100.2 62.2 99.6 59.6 98.9 57 98.1 54.4 97.1 51.9 95.9 49.5 94.7 47.1 93.3 44.8 91.8 42.6 90.1 40.4 88.4 38.4 86.5 36.4 84.5 34.6 82.3 33 80 31.7 77.4 30.5 74.8 29.6 72 28.9 69.2 28.3 66.3 27.9 63.4 27.6 60.5 27.4 57.5 27.3 54.5 27.2 51.5 27.2 48.5 27.2 45.5 27.2 42.4 27.1 39.3 27 36.1 27.1 32.9 Z" fill="url(#bb)"/><path d="M32.8 33.1 L32.7 36.2 32.7 39.1 33 42 33.5 44.8 34.2 47.4 35.2 50 36.3 52.3 37.5 54.6 38.9 56.6 40.3 58.5 41.8 60.3 43.3 62 44.8 63.5 46.3 64.9 47.8 66.2 49.2 67.5 50.6 68.7 51.8 69.9 53 71.1 54.3 72.3 55.6 73.3 56.9 74.3 58.3 75.2 59.7 76 61.2 76.8 62.7 77.5 64.2 78.1 65.7 78.6 67.3 79 68.9 79.3 70.5 79.6 72.2 79.8 73.9 79.9 75.6 79.9 77.4 79.9 79.2 79.9 81 80 83 80.1 85 80.2 87.1 80.2 89.3 80.2 91.6 80 93.9 79.7 96.3 79.2 98.7 78.5 101 77.5 103.3 76.3 105.5 74.8 107.1 76.8 104.8 78.4 102.6 79.9 100.3 81.1 97.9 82.2 95.6 83.1 93.3 83.9 91 84.6 88.7 85.1 86.4 85.5 84.2 85.8 82 86.1 79.9 86.2 77.8 86.4 75.7 86.4 73.7 86.4 71.7 86.3 69.7 86.1 67.7 85.8 65.7 85.3 63.8 84.8 62 84.2 60.1 83.5 58.3 82.7 56.6 81.8 54.9 80.8 53.2 79.7 51.6 78.5 50 77.2 48.5 75.9 47.1 74.4 45.6 72.9 44.2 71.3 42.8 69.7 41.5 67.9 40.2 66.1 38.9 64.2 37.6 62.2 36.5 60 35.4 57.8 34.4 55.5 33.5 53 32.7 50.4 32.1 47.8 31.6 45 31.2 42.1 31 39.2 30.9 36.2 31 33 Z" fill="#FFF7C8" fill-opacity=".35"/><path d="M29.3 33 L29.2 36.1 29.3 39.2 29.4 42.3 29.6 45.2 29.9 48.1 30.3 50.9 30.7 53.7 31.3 56.4 31.9 59 32.7 61.5 33.5 64 34.4 66.4 35.5 68.7 36.6 71 37.9 73.1 39.3 75.2 40.7 77.1 42.3 78.9 44 80.6 45.8 82.2 47.6 83.7 49.5 85.1 51.4 86.3 53.4 87.5 55.5 88.6 57.6 89.5 59.8 90.4 62 91.1 64.2 91.7 66.5 92.2 68.8 92.6 71.1 92.8 73.5 93 75.8 93 78.2 92.9 80.7 92.6 83.1 92.2 85.5 91.6 87.9 90.8 90.2 90 92.6 89 94.9 87.8 97.2 86.6 99.5 85.2 101.8 83.8 104.1 82.2 106.4 80.6 108.7 78.9 110.5 81.2 108.2 83.1 105.9 85 103.7 86.9 101.4 88.7 99.2 90.6 96.9 92.4 94.5 94.1 92.1 95.6 89.5 97.1 86.9 98.3 84.3 99.3 81.5 100 78.8 100.5 76 100.6 73.2 100.6 70.5 100.4 67.7 100.1 65 99.7 62.4 99.1 59.8 98.4 57.2 97.5 54.7 96.6 52.2 95.4 49.8 94.2 47.4 92.8 45.1 91.3 42.9 89.7 40.8 88 38.8 86.1 36.8 84.2 35 82 33.4 79.6 32.1 77.1 31 74.5 30 71.8 29.2 69 28.6 66.2 28.2 63.3 27.9 60.4 27.7 57.4 27.5 54.5 27.4 51.5 27.4 48.5 27.4 45.5 27.3 42.4 27.2 39.3 27.2 36.1 27.2 32.9 Z" fill="#A06A08" fill-opacity=".2"/><path d="M32.9 33.1 L32.8 36.2 32.9 39.1 33.1 42 33.7 44.8 34.4 47.4 35.4 49.9 36.5 52.3 37.8 54.5 39.2 56.5 40.6 58.4 42.1 60.2 43.7 61.8 45.2 63.3 46.8 64.6 48.2 65.9 49.6 67.1 51 68.3 52.2 69.5 53.4 70.7 54.7 71.9 55.9 72.9 57.3 73.9 58.6 74.8 60 75.6 61.4 76.3 62.9 77 64.4 77.5 65.9 78 67.4 78.5 69 78.8 70.6 79.1 72.3 79.3 73.9 79.3 75.6 79.4 77.3 79.3 79.1 79.3 80.9 79.4 82.9 79.6 84.9 79.7 87 79.8 89.2 79.8 91.5 79.7 93.8 79.4 96.2 78.9 98.5 78.2 100.9 77.3 103.2 76.1 105.4 74.6 110.6 81.4 108.3 83.3 106 85.2 103.8 87.1 101.6 89 99.3 90.9 97 92.7 94.6 94.4 92.2 96.1 89.7 97.5 87 98.8 84.4 99.8 81.6 100.6 78.8 101 76 101.2 73.2 101.1 70.4 101 67.7 100.7 64.9 100.2 62.2 99.6 59.6 98.9 57 98.1 54.4 97.1 51.9 95.9 49.5 94.7 47.1 93.3 44.8 91.8 42.6 90.1 40.4 88.4 38.4 86.5 36.4 84.5 34.6 82.3 33 80 31.7 77.4 30.5 74.8 29.6 72 28.9 69.2 28.3 66.3 27.9 63.4 27.6 60.5 27.4 57.5 27.3 54.5 27.2 51.5 27.2 48.5 27.2 45.5 27.2 42.4 27.1 39.3 27 36.1 27.1 32.9 Z" fill="url(#bn2)"/><path d="M31.6 45 L32.1 47.8 32.7 50.4 33.5 53 34.4 55.5 35.4 57.8 36.5 60 37.6 62.2 38.9 64.2 40.2 66.1 41.5 67.9 42.8 69.7 44.2 71.3 45.6 72.9 47.1 74.4 48.5 75.9 50 77.2 51.6 78.5 53.2 79.7 54.9 80.8 56.6 81.8 58.3 82.7 60.1 83.5 62 84.2 63.8 84.8 65.7 85.3 67.7 85.8 69.7 86.1 71.7 86.3 73.7 86.4 75.7 86.4 77.8 86.4 79.9 86.2 82 86.1 84.2 85.8 86.4 85.5 88.7 85.1 91 84.6 93.3 83.9 95.6 83.1 97.9 82.2 100.3 81.1" stroke="#FFF8D0" stroke-opacity=".5" stroke-width=".9" fill="none" stroke-linecap="round"/><path d="M29.4 42.3 L29.6 45.2 29.9 48.1 30.3 50.9 30.7 53.7 31.3 56.4 31.9 59 32.7 61.5 33.5 64 34.4 66.4 35.5 68.7 36.6 71 37.9 73.1 39.3 75.2 40.7 77.1 42.3 78.9 44 80.6 45.8 82.2 47.6 83.7 49.5 85.1 51.4 86.3 53.4 87.5 55.5 88.6 57.6 89.5 59.8 90.4 62 91.1 64.2 91.7 66.5 92.2 68.8 92.6 71.1 92.8 73.5 93 75.8 93 78.2 92.9 80.7 92.6 83.1 92.2 85.5 91.6 87.9 90.8 90.2 90 92.6 89 94.9 87.8 97.2 86.6 99.5 85.2 101.8 83.8 104.1 82.2" stroke="#B07A0C" stroke-opacity=".35" stroke-width=".9" fill="none" stroke-linecap="round"/><g fill="#6A3E0E" fill-opacity=".45"><circle cx="39.6" cy="70.6" r="0.4"/><circle cx="46.1" cy="75.7" r="0.4"/><circle cx="51" cy="85.4" r="0.5"/><circle cx="56.1" cy="87" r="0.4"/><circle cx="63.2" cy="86.5" r="0.6"/><circle cx="71.9" cy="87.2" r="0.5"/><circle cx="76.4" cy="88.2" r="0.4"/><circle cx="85.6" cy="92.6" r="0.4"/></g><path d="M46.5 69.6 L47.9 71 49.2 72.4 50.6 73.7 52 75 53.4 76.2 54.9 77.3 56.4 78.3 58 79.2 59.6 80 61.3 80.8 63 81.4 64.7 82 66.4 82.5" stroke="#FFFFFF" stroke-opacity=".45" stroke-width="1.4" fill="none" stroke-linecap="round"/><g transform="translate(108 78) rotate(142.7)"><ellipse rx="2.1" ry="3.1" fill="url(#bt)"/><ellipse cx="-.9" cy="-.6" rx=".6" ry="1" fill="#8A7048" fill-opacity=".6"/></g><ellipse cx="30.5" cy="33" rx="6.2" ry="5" fill="url(#kn)"/><g transform="translate(30 33) rotate(-112) scale(.32 .85) rotate(112) translate(-30 -33)"><path d="M25.5 34 C24 28 21.5 22 19 17 L26.5 13.5 C28.5 18.5 31.5 25 35 31 C33 34.5 28 35.5 25.5 34 Z" fill="url(#kc)"/><g stroke="#4E4020" stroke-opacity=".4" stroke-width=".55" fill="none" stroke-linecap="round"><path d="M21.5 17 C24 23 26.5 28 28 33.5"/><path d="M24.5 15.5 C27 21 29.5 26.5 31.5 32.5"/></g><path d="M20 18.5 C22 23 24.5 28.5 26 33.5" stroke="#E6E0A8" stroke-opacity=".45" stroke-width=".9" fill="none" stroke-linecap="round"/><ellipse cx="22.7" cy="15.2" rx="4.2" ry="2" transform="rotate(-26 22.7 15.2)" fill="url(#kt)"/><ellipse cx="22.7" cy="15.2" rx="4.2" ry="2" transform="rotate(-26 22.7 15.2)" fill="none" stroke="#2E2414" stroke-opacity=".8" stroke-width=".6"/></g></g></g></svg>