<svg xmlns="http://www.w3.org/2000/svg" viewBox="0 0 128 128" width="128" height="128"><defs><radialGradient id="sp" cx="0.5" cy="0.5" r="0.5"><stop offset="0" stop-color="#FFFFFF" stop-opacity="0.9"/><stop offset="1" stop-color="#FFFFFF" stop-opacity="0.00"/></radialGradient><radialGradient id="so" cx="0.5" cy="0.5" r="0.5"><stop offset="0" stop-color="#FFFFFF" stop-opacity="0.5"/><stop offset="1" stop-color="#FFFFFF" stop-opacity="0.00"/></radialGradient><linearGradient id="la" x1="0" y1="0" x2="0" y2="1"><stop offset="0" stop-color="#A7E08A"/><stop offset="0.5" stop-color="#5DB356"/><stop offset="1" stop-color="#2F8B41"/></linearGradient><linearGradient id="lb" x1="0" y1="0" x2="0" y2="1"><stop offset="0" stop-color="#3E9A48"/><stop offset="1" stop-color="#1F6B35"/></linearGradient><radialGradient id="cb" cx="0.34" cy="0.3" r="0.78"><stop offset="0" stop-color="#FF8C90"/><stop offset="0.2" stop-color="#E0283E"/><stop offset="0.6" stop-color="#B0102A"/><stop offset="0.8" stop-color="#7A0618"/><stop offset="1" stop-color="#44020C"/></radialGradient><radialGradient id="ce" cx="0.5" cy="0.5" r="0.5"><stop offset="0" stop-color="#2A0008" stop-opacity="0.00"/><stop offset="0.7" stop-color="#2A0008" stop-opacity="0.00"/><stop offset="1" stop-color="#2A0008" stop-opacity="0.5"/></radialGradient><linearGradient id="cs" x1="0" y1="0" x2="1" y2="0"><stop offset="0" stop-color="#8CBF52"/><stop offset="1" stop-color="#4E7A26"/></linearGradient><radialGradient id="g1" cx="0.5" cy="0.5" r="0.5"><stop offset="0" stop-color="#0B2226" stop-opacity="0.3"/><stop offset="1" stop-color="#0B2226" stop-opacity="0.00"/></radialGradient><radialGradient id="g2" cx="0.5" cy="0.5" r="0.5"><stop offset="0" stop-color="#0B2226" stop-opacity="0.4"/><stop offset="1" stop-color="#0B2226" stop-opacity="0.00"/></radialGradient></defs><ellipse cx="64" cy="113" rx="34.4" ry="7" fill="url(#g1)"/><ellipse cx="64" cy="112.2" rx="21.3" ry="2.6" fill="url(#g2)"/><g transform="translate(-0 -0)"><g transform="translate(64 112) scale(1.019) translate(-64 -112)"><path d="M46 70 C50 48 62 30 78 20" stroke="url(#cs)" stroke-width="2.2" fill="none" stroke-linecap="round"/><path d="M84 76 C84 52 80 34 78 20" stroke="url(#cs)" stroke-width="2.2" fill="none" stroke-linecap="round"/><ellipse cx="78" cy="19.5" rx="2.4" ry="1.6" fill="#5A4A22"/><g transform="translate(78 20) rotate(-20)"><path d="M0 0 C6.6 9.5 21.6 8.5 30 0 Q15 -0.6 0 0 Z" fill="url(#lb)"/><path d="M0 0 C6.6 -10 21.6 -9.2 30 0 Q15 -0.6 0 0 Z" fill="url(#la)"/><g stroke="#1E5E2E" stroke-opacity=".28" stroke-width=".55" fill="none" stroke-linecap="round"><path d="M4.6 -0.5 Q6.7 -4.5 9.4 -6.6"/><path d="M4.6 -0.3 Q6.7 4 9.4 6.1"/><path d="M9.2 -0.5 Q11.3 -4.5 14 -6.1"/><path d="M9.2 -0.3 Q11.3 4 14 5.6"/><path d="M13.8 -0.5 Q15.9 -4.5 18.6 -5.5"/><path d="M13.8 -0.3 Q15.9 4 18.6 5.1"/><path d="M18.5 -0.5 Q20.6 -4.5 23.3 -5"/><path d="M18.5 -0.3 Q20.6 4 23.3 4.6"/><path d="M23.1 -0.5 Q25.2 -4.5 27.9 -4.4"/><path d="M23.1 -0.3 Q25.2 4 27.9 4.1"/></g><path d="M-3 .6 Q15 -0.8 27.9 0" stroke="#D6F2B8" stroke-opacity=".75" stroke-width=".9" fill="none" stroke-linecap="round"/><ellipse cx="12.6" cy="-4.5" rx="7.8" ry="2.2" fill="url(#so)" opacity=".55"/></g><path d="M44 70.8 C52.8 64.9 66.4 70.4 66 88 C66 101.6 56.1 110 44 110 C31.9 110 22 101.6 22 88 C21.6 70.4 35.2 64.9 44 70.8 Z" fill="url(#cb)"/><path d="M44 70.8 C52.8 64.9 66.4 70.4 66 88 C66 101.6 56.1 110 44 110 C31.9 110 22 101.6 22 88 C21.6 70.4 35.2 64.9 44 70.8 Z" fill="url(#ce)"/><ellipse cx="45" cy="71.7" rx="3.5" ry="1.5" fill="#3A0008" fill-opacity=".6"/><ellipse cx="34.8" cy="80.1" rx="6.6" ry="4" transform="rotate(-35 34.8 80.1)" fill="url(#so)" opacity=".9"/><ellipse cx="34.3" cy="79.2" rx="2.6" ry="1.5" transform="rotate(-35 34.3 79.2)" fill="url(#sp)"/><path d="M84 72.8 C92.8 66.9 106.4 72.4 106 90 C106 103.6 96.1 112 84 112 C71.9 112 62 103.6 62 90 C61.6 72.4 75.2 66.9 84 72.8 Z" fill="url(#cb)"/><path d="M84 72.8 C92.8 66.9 106.4 72.4 106 90 C106 103.6 96.1 112 84 112 C71.9 112 62 103.6 62 90 C61.6 72.4 75.2 66.9 84 72.8 Z" fill="url(#ce)"/><ellipse cx="85" cy="73.7" rx="3.5" ry="1.5" fill="#3A0008" fill-opacity=".6"/><ellipse cx="74.8" cy="82.1" rx="6.6" ry="4" transform="rotate(-35 74.8 82.1)" fill="url(#so)" opacity=".9"/><ellipse cx="74.3" cy="81.2" rx="2.6" ry="1.5" transform="rotate(-35 74.3 81.2)" fill="url(#sp)"/></g></g></svg>